<?xml version="1.0" encoding="utf-8" standalone="no"?>
<!DOCTYPE svg PUBLIC "-//W3C//DTD SVG 1.1//EN"
  "http://www.w3.org/Graphics/SVG/1.1/DTD/svg11.dtd">
<svg xmlns:xlink="http://www.w3.org/1999/xlink" width="424.370625pt" height="279.99625pt" viewBox="0 0 424.370625 279.99625" xmlns="http://www.w3.org/2000/svg" version="1.1">
 <metadata>
  <rdf:RDF xmlns:dc="http://purl.org/dc/elements/1.1/" xmlns:cc="http://creativecommons.org/ns#" xmlns:rdf="http://www.w3.org/1999/02/22-rdf-syntax-ns#">
   <cc:Work>
    <dc:type rdf:resource="http://purl.org/dc/dcmitype/StillImage"/>
    <dc:date>2023-11-01T12:58:42.866540</dc:date>
    <dc:format>image/svg+xml</dc:format>
    <dc:creator>
     <cc:Agent>
      <dc:title>Matplotlib v3.5.2, https://matplotlib.org/</dc:title>
     </cc:Agent>
    </dc:creator>
   </cc:Work>
  </rdf:RDF>
 </metadata>
 <defs>
  <style type="text/css">*{stroke-linejoin: round; stroke-linecap: butt}</style>
 </defs>
 <g id="figure_1">
  <g id="patch_1">
   <path d="M 0 279.99625 
L 424.370625 279.99625 
L 424.370625 0 
L 0 0 
z
" style="fill: #ffffff"/>
  </g>
  <g id="axes_1">
   <g id="patch_2">
    <path d="M 34.240625 242.44 
L 417.170625 242.44 
L 417.170625 7.2 
L 34.240625 7.2 
z
" style="fill: #ffffff"/>
   </g>
   <g id="matplotlib.axis_1">
    <g id="xtick_1">
     <g id="line2d_1">
      <defs>
       <path id="mb68a6ab4cb" d="M 0 0 
L 0 3.5 
" style="stroke: #000000; stroke-width: 0.8"/>
      </defs>
      <g>
       <use xlink:href="#mb68a6ab4cb" x="51.646534" y="242.44" style="stroke: #000000; stroke-width: 0.8"/>
      </g>
     </g>
     <g id="text_1">
      <!-- 0 -->
      <g transform="translate(48.465284 257.038437)scale(0.1 -0.1)">
       <defs>
        <path id="DejaVuSans-30" d="M 2034 4250 
Q 1547 4250 1301 3770 
Q 1056 3291 1056 2328 
Q 1056 1369 1301 889 
Q 1547 409 2034 409 
Q 2525 409 2770 889 
Q 3016 1369 3016 2328 
Q 3016 3291 2770 3770 
Q 2525 4250 2034 4250 
z
M 2034 4750 
Q 2819 4750 3233 4129 
Q 3647 3509 3647 2328 
Q 3647 1150 3233 529 
Q 2819 -91 2034 -91 
Q 1250 -91 836 529 
Q 422 1150 422 2328 
Q 422 3509 836 4129 
Q 1250 4750 2034 4750 
z
" transform="scale(0.015625)"/>
       </defs>
       <use xlink:href="#DejaVuSans-30"/>
      </g>
     </g>
    </g>
    <g id="xtick_2">
     <g id="line2d_2">
      <g>
       <use xlink:href="#mb68a6ab4cb" x="101.591754" y="242.44" style="stroke: #000000; stroke-width: 0.8"/>
      </g>
     </g>
     <g id="text_2">
      <!-- 100 -->
      <g transform="translate(92.048004 257.038437)scale(0.1 -0.1)">
       <defs>
        <path id="DejaVuSans-31" d="M 794 531 
L 1825 531 
L 1825 4091 
L 703 3866 
L 703 4441 
L 1819 4666 
L 2450 4666 
L 2450 531 
L 3481 531 
L 3481 0 
L 794 0 
L 794 531 
z
" transform="scale(0.015625)"/>
       </defs>
       <use xlink:href="#DejaVuSans-31"/>
       <use xlink:href="#DejaVuSans-30" x="63.623047"/>
       <use xlink:href="#DejaVuSans-30" x="127.246094"/>
      </g>
     </g>
    </g>
    <g id="xtick_3">
     <g id="line2d_3">
      <g>
       <use xlink:href="#mb68a6ab4cb" x="151.536974" y="242.44" style="stroke: #000000; stroke-width: 0.8"/>
      </g>
     </g>
     <g id="text_3">
      <!-- 200 -->
      <g transform="translate(141.993224 257.038437)scale(0.1 -0.1)">
       <defs>
        <path id="DejaVuSans-32" d="M 1228 531 
L 3431 531 
L 3431 0 
L 469 0 
L 469 531 
Q 828 903 1448 1529 
Q 2069 2156 2228 2338 
Q 2531 2678 2651 2914 
Q 2772 3150 2772 3378 
Q 2772 3750 2511 3984 
Q 2250 4219 1831 4219 
Q 1534 4219 1204 4116 
Q 875 4013 500 3803 
L 500 4441 
Q 881 4594 1212 4672 
Q 1544 4750 1819 4750 
Q 2544 4750 2975 4387 
Q 3406 4025 3406 3419 
Q 3406 3131 3298 2873 
Q 3191 2616 2906 2266 
Q 2828 2175 2409 1742 
Q 1991 1309 1228 531 
z
" transform="scale(0.015625)"/>
       </defs>
       <use xlink:href="#DejaVuSans-32"/>
       <use xlink:href="#DejaVuSans-30" x="63.623047"/>
       <use xlink:href="#DejaVuSans-30" x="127.246094"/>
      </g>
     </g>
    </g>
    <g id="xtick_4">
     <g id="line2d_4">
      <g>
       <use xlink:href="#mb68a6ab4cb" x="201.482193" y="242.44" style="stroke: #000000; stroke-width: 0.8"/>
      </g>
     </g>
     <g id="text_4">
      <!-- 300 -->
      <g transform="translate(191.938443 257.038437)scale(0.1 -0.1)">
       <defs>
        <path id="DejaVuSans-33" d="M 2597 2516 
Q 3050 2419 3304 2112 
Q 3559 1806 3559 1356 
Q 3559 666 3084 287 
Q 2609 -91 1734 -91 
Q 1441 -91 1130 -33 
Q 819 25 488 141 
L 488 750 
Q 750 597 1062 519 
Q 1375 441 1716 441 
Q 2309 441 2620 675 
Q 2931 909 2931 1356 
Q 2931 1769 2642 2001 
Q 2353 2234 1838 2234 
L 1294 2234 
L 1294 2753 
L 1863 2753 
Q 2328 2753 2575 2939 
Q 2822 3125 2822 3475 
Q 2822 3834 2567 4026 
Q 2313 4219 1838 4219 
Q 1578 4219 1281 4162 
Q 984 4106 628 3988 
L 628 4550 
Q 988 4650 1302 4700 
Q 1616 4750 1894 4750 
Q 2613 4750 3031 4423 
Q 3450 4097 3450 3541 
Q 3450 3153 3228 2886 
Q 3006 2619 2597 2516 
z
" transform="scale(0.015625)"/>
       </defs>
       <use xlink:href="#DejaVuSans-33"/>
       <use xlink:href="#DejaVuSans-30" x="63.623047"/>
       <use xlink:href="#DejaVuSans-30" x="127.246094"/>
      </g>
     </g>
    </g>
    <g id="xtick_5">
     <g id="line2d_5">
      <g>
       <use xlink:href="#mb68a6ab4cb" x="251.427413" y="242.44" style="stroke: #000000; stroke-width: 0.8"/>
      </g>
     </g>
     <g id="text_5">
      <!-- 400 -->
      <g transform="translate(241.883663 257.038437)scale(0.1 -0.1)">
       <defs>
        <path id="DejaVuSans-34" d="M 2419 4116 
L 825 1625 
L 2419 1625 
L 2419 4116 
z
M 2253 4666 
L 3047 4666 
L 3047 1625 
L 3713 1625 
L 3713 1100 
L 3047 1100 
L 3047 0 
L 2419 0 
L 2419 1100 
L 313 1100 
L 313 1709 
L 2253 4666 
z
" transform="scale(0.015625)"/>
       </defs>
       <use xlink:href="#DejaVuSans-34"/>
       <use xlink:href="#DejaVuSans-30" x="63.623047"/>
       <use xlink:href="#DejaVuSans-30" x="127.246094"/>
      </g>
     </g>
    </g>
    <g id="xtick_6">
     <g id="line2d_6">
      <g>
       <use xlink:href="#mb68a6ab4cb" x="301.372633" y="242.44" style="stroke: #000000; stroke-width: 0.8"/>
      </g>
     </g>
     <g id="text_6">
      <!-- 500 -->
      <g transform="translate(291.828883 257.038437)scale(0.1 -0.1)">
       <defs>
        <path id="DejaVuSans-35" d="M 691 4666 
L 3169 4666 
L 3169 4134 
L 1269 4134 
L 1269 2991 
Q 1406 3038 1543 3061 
Q 1681 3084 1819 3084 
Q 2600 3084 3056 2656 
Q 3513 2228 3513 1497 
Q 3513 744 3044 326 
Q 2575 -91 1722 -91 
Q 1428 -91 1123 -41 
Q 819 9 494 109 
L 494 744 
Q 775 591 1075 516 
Q 1375 441 1709 441 
Q 2250 441 2565 725 
Q 2881 1009 2881 1497 
Q 2881 1984 2565 2268 
Q 2250 2553 1709 2553 
Q 1456 2553 1204 2497 
Q 953 2441 691 2322 
L 691 4666 
z
" transform="scale(0.015625)"/>
       </defs>
       <use xlink:href="#DejaVuSans-35"/>
       <use xlink:href="#DejaVuSans-30" x="63.623047"/>
       <use xlink:href="#DejaVuSans-30" x="127.246094"/>
      </g>
     </g>
    </g>
    <g id="xtick_7">
     <g id="line2d_7">
      <g>
       <use xlink:href="#mb68a6ab4cb" x="351.317853" y="242.44" style="stroke: #000000; stroke-width: 0.8"/>
      </g>
     </g>
     <g id="text_7">
      <!-- 600 -->
      <g transform="translate(341.774103 257.038437)scale(0.1 -0.1)">
       <defs>
        <path id="DejaVuSans-36" d="M 2113 2584 
Q 1688 2584 1439 2293 
Q 1191 2003 1191 1497 
Q 1191 994 1439 701 
Q 1688 409 2113 409 
Q 2538 409 2786 701 
Q 3034 994 3034 1497 
Q 3034 2003 2786 2293 
Q 2538 2584 2113 2584 
z
M 3366 4563 
L 3366 3988 
Q 3128 4100 2886 4159 
Q 2644 4219 2406 4219 
Q 1781 4219 1451 3797 
Q 1122 3375 1075 2522 
Q 1259 2794 1537 2939 
Q 1816 3084 2150 3084 
Q 2853 3084 3261 2657 
Q 3669 2231 3669 1497 
Q 3669 778 3244 343 
Q 2819 -91 2113 -91 
Q 1303 -91 875 529 
Q 447 1150 447 2328 
Q 447 3434 972 4092 
Q 1497 4750 2381 4750 
Q 2619 4750 2861 4703 
Q 3103 4656 3366 4563 
z
" transform="scale(0.015625)"/>
       </defs>
       <use xlink:href="#DejaVuSans-36"/>
       <use xlink:href="#DejaVuSans-30" x="63.623047"/>
       <use xlink:href="#DejaVuSans-30" x="127.246094"/>
      </g>
     </g>
    </g>
    <g id="xtick_8">
     <g id="line2d_8">
      <g>
       <use xlink:href="#mb68a6ab4cb" x="401.263073" y="242.44" style="stroke: #000000; stroke-width: 0.8"/>
      </g>
     </g>
     <g id="text_8">
      <!-- 700 -->
      <g transform="translate(391.719323 257.038437)scale(0.1 -0.1)">
       <defs>
        <path id="DejaVuSans-37" d="M 525 4666 
L 3525 4666 
L 3525 4397 
L 1831 0 
L 1172 0 
L 2766 4134 
L 525 4134 
L 525 4666 
z
" transform="scale(0.015625)"/>
       </defs>
       <use xlink:href="#DejaVuSans-37"/>
       <use xlink:href="#DejaVuSans-30" x="63.623047"/>
       <use xlink:href="#DejaVuSans-30" x="127.246094"/>
      </g>
     </g>
    </g>
    <g id="text_9">
     <!-- games -->
     <g transform="translate(208.915781 270.716562)scale(0.1 -0.1)">
      <defs>
       <path id="DejaVuSans-67" d="M 2906 1791 
Q 2906 2416 2648 2759 
Q 2391 3103 1925 3103 
Q 1463 3103 1205 2759 
Q 947 2416 947 1791 
Q 947 1169 1205 825 
Q 1463 481 1925 481 
Q 2391 481 2648 825 
Q 2906 1169 2906 1791 
z
M 3481 434 
Q 3481 -459 3084 -895 
Q 2688 -1331 1869 -1331 
Q 1566 -1331 1297 -1286 
Q 1028 -1241 775 -1147 
L 775 -588 
Q 1028 -725 1275 -790 
Q 1522 -856 1778 -856 
Q 2344 -856 2625 -561 
Q 2906 -266 2906 331 
L 2906 616 
Q 2728 306 2450 153 
Q 2172 0 1784 0 
Q 1141 0 747 490 
Q 353 981 353 1791 
Q 353 2603 747 3093 
Q 1141 3584 1784 3584 
Q 2172 3584 2450 3431 
Q 2728 3278 2906 2969 
L 2906 3500 
L 3481 3500 
L 3481 434 
z
" transform="scale(0.015625)"/>
       <path id="DejaVuSans-61" d="M 2194 1759 
Q 1497 1759 1228 1600 
Q 959 1441 959 1056 
Q 959 750 1161 570 
Q 1363 391 1709 391 
Q 2188 391 2477 730 
Q 2766 1069 2766 1631 
L 2766 1759 
L 2194 1759 
z
M 3341 1997 
L 3341 0 
L 2766 0 
L 2766 531 
Q 2569 213 2275 61 
Q 1981 -91 1556 -91 
Q 1019 -91 701 211 
Q 384 513 384 1019 
Q 384 1609 779 1909 
Q 1175 2209 1959 2209 
L 2766 2209 
L 2766 2266 
Q 2766 2663 2505 2880 
Q 2244 3097 1772 3097 
Q 1472 3097 1187 3025 
Q 903 2953 641 2809 
L 641 3341 
Q 956 3463 1253 3523 
Q 1550 3584 1831 3584 
Q 2591 3584 2966 3190 
Q 3341 2797 3341 1997 
z
" transform="scale(0.015625)"/>
       <path id="DejaVuSans-6d" d="M 3328 2828 
Q 3544 3216 3844 3400 
Q 4144 3584 4550 3584 
Q 5097 3584 5394 3201 
Q 5691 2819 5691 2113 
L 5691 0 
L 5113 0 
L 5113 2094 
Q 5113 2597 4934 2840 
Q 4756 3084 4391 3084 
Q 3944 3084 3684 2787 
Q 3425 2491 3425 1978 
L 3425 0 
L 2847 0 
L 2847 2094 
Q 2847 2600 2669 2842 
Q 2491 3084 2119 3084 
Q 1678 3084 1418 2786 
Q 1159 2488 1159 1978 
L 1159 0 
L 581 0 
L 581 3500 
L 1159 3500 
L 1159 2956 
Q 1356 3278 1631 3431 
Q 1906 3584 2284 3584 
Q 2666 3584 2933 3390 
Q 3200 3197 3328 2828 
z
" transform="scale(0.015625)"/>
       <path id="DejaVuSans-65" d="M 3597 1894 
L 3597 1613 
L 953 1613 
Q 991 1019 1311 708 
Q 1631 397 2203 397 
Q 2534 397 2845 478 
Q 3156 559 3463 722 
L 3463 178 
Q 3153 47 2828 -22 
Q 2503 -91 2169 -91 
Q 1331 -91 842 396 
Q 353 884 353 1716 
Q 353 2575 817 3079 
Q 1281 3584 2069 3584 
Q 2775 3584 3186 3129 
Q 3597 2675 3597 1894 
z
M 3022 2063 
Q 3016 2534 2758 2815 
Q 2500 3097 2075 3097 
Q 1594 3097 1305 2825 
Q 1016 2553 972 2059 
L 3022 2063 
z
" transform="scale(0.015625)"/>
       <path id="DejaVuSans-73" d="M 2834 3397 
L 2834 2853 
Q 2591 2978 2328 3040 
Q 2066 3103 1784 3103 
Q 1356 3103 1142 2972 
Q 928 2841 928 2578 
Q 928 2378 1081 2264 
Q 1234 2150 1697 2047 
L 1894 2003 
Q 2506 1872 2764 1633 
Q 3022 1394 3022 966 
Q 3022 478 2636 193 
Q 2250 -91 1575 -91 
Q 1294 -91 989 -36 
Q 684 19 347 128 
L 347 722 
Q 666 556 975 473 
Q 1284 391 1588 391 
Q 1994 391 2212 530 
Q 2431 669 2431 922 
Q 2431 1156 2273 1281 
Q 2116 1406 1581 1522 
L 1381 1569 
Q 847 1681 609 1914 
Q 372 2147 372 2553 
Q 372 3047 722 3315 
Q 1072 3584 1716 3584 
Q 2034 3584 2315 3537 
Q 2597 3491 2834 3397 
z
" transform="scale(0.015625)"/>
      </defs>
      <use xlink:href="#DejaVuSans-67"/>
      <use xlink:href="#DejaVuSans-61" x="63.476562"/>
      <use xlink:href="#DejaVuSans-6d" x="124.755859"/>
      <use xlink:href="#DejaVuSans-65" x="222.167969"/>
      <use xlink:href="#DejaVuSans-73" x="283.691406"/>
     </g>
    </g>
   </g>
   <g id="matplotlib.axis_2">
    <g id="ytick_1">
     <g id="line2d_9">
      <defs>
       <path id="mff4758b451" d="M 0 0 
L -3.5 0 
" style="stroke: #000000; stroke-width: 0.8"/>
      </defs>
      <g>
       <use xlink:href="#mff4758b451" x="34.240625" y="231.747273" style="stroke: #000000; stroke-width: 0.8"/>
      </g>
     </g>
     <g id="text_10">
      <!-- 1 -->
      <g transform="translate(20.878125 235.546491)scale(0.1 -0.1)">
       <use xlink:href="#DejaVuSans-31"/>
      </g>
     </g>
    </g>
    <g id="ytick_2">
     <g id="line2d_10">
      <g>
       <use xlink:href="#mff4758b451" x="34.240625" y="184.803592" style="stroke: #000000; stroke-width: 0.8"/>
      </g>
     </g>
     <g id="text_11">
      <!-- 2 -->
      <g transform="translate(20.878125 188.602811)scale(0.1 -0.1)">
       <use xlink:href="#DejaVuSans-32"/>
      </g>
     </g>
    </g>
    <g id="ytick_3">
     <g id="line2d_11">
      <g>
       <use xlink:href="#mff4758b451" x="34.240625" y="137.859911" style="stroke: #000000; stroke-width: 0.8"/>
      </g>
     </g>
     <g id="text_12">
      <!-- 3 -->
      <g transform="translate(20.878125 141.65913)scale(0.1 -0.1)">
       <use xlink:href="#DejaVuSans-33"/>
      </g>
     </g>
    </g>
    <g id="ytick_4">
     <g id="line2d_12">
      <g>
       <use xlink:href="#mff4758b451" x="34.240625" y="90.916231" style="stroke: #000000; stroke-width: 0.8"/>
      </g>
     </g>
     <g id="text_13">
      <!-- 4 -->
      <g transform="translate(20.878125 94.715449)scale(0.1 -0.1)">
       <use xlink:href="#DejaVuSans-34"/>
      </g>
     </g>
    </g>
    <g id="ytick_5">
     <g id="line2d_13">
      <g>
       <use xlink:href="#mff4758b451" x="34.240625" y="43.97255" style="stroke: #000000; stroke-width: 0.8"/>
      </g>
     </g>
     <g id="text_14">
      <!-- 5 -->
      <g transform="translate(20.878125 47.771769)scale(0.1 -0.1)">
       <use xlink:href="#DejaVuSans-35"/>
      </g>
     </g>
    </g>
    <g id="text_15">
     <!-- distance ratio -->
     <g transform="translate(14.798438 159.123906)rotate(-90)scale(0.1 -0.1)">
      <defs>
       <path id="DejaVuSans-64" d="M 2906 2969 
L 2906 4863 
L 3481 4863 
L 3481 0 
L 2906 0 
L 2906 525 
Q 2725 213 2448 61 
Q 2172 -91 1784 -91 
Q 1150 -91 751 415 
Q 353 922 353 1747 
Q 353 2572 751 3078 
Q 1150 3584 1784 3584 
Q 2172 3584 2448 3432 
Q 2725 3281 2906 2969 
z
M 947 1747 
Q 947 1113 1208 752 
Q 1469 391 1925 391 
Q 2381 391 2643 752 
Q 2906 1113 2906 1747 
Q 2906 2381 2643 2742 
Q 2381 3103 1925 3103 
Q 1469 3103 1208 2742 
Q 947 2381 947 1747 
z
" transform="scale(0.015625)"/>
       <path id="DejaVuSans-69" d="M 603 3500 
L 1178 3500 
L 1178 0 
L 603 0 
L 603 3500 
z
M 603 4863 
L 1178 4863 
L 1178 4134 
L 603 4134 
L 603 4863 
z
" transform="scale(0.015625)"/>
       <path id="DejaVuSans-74" d="M 1172 4494 
L 1172 3500 
L 2356 3500 
L 2356 3053 
L 1172 3053 
L 1172 1153 
Q 1172 725 1289 603 
Q 1406 481 1766 481 
L 2356 481 
L 2356 0 
L 1766 0 
Q 1100 0 847 248 
Q 594 497 594 1153 
L 594 3053 
L 172 3053 
L 172 3500 
L 594 3500 
L 594 4494 
L 1172 4494 
z
" transform="scale(0.015625)"/>
       <path id="DejaVuSans-6e" d="M 3513 2113 
L 3513 0 
L 2938 0 
L 2938 2094 
Q 2938 2591 2744 2837 
Q 2550 3084 2163 3084 
Q 1697 3084 1428 2787 
Q 1159 2491 1159 1978 
L 1159 0 
L 581 0 
L 581 3500 
L 1159 3500 
L 1159 2956 
Q 1366 3272 1645 3428 
Q 1925 3584 2291 3584 
Q 2894 3584 3203 3211 
Q 3513 2838 3513 2113 
z
" transform="scale(0.015625)"/>
       <path id="DejaVuSans-63" d="M 3122 3366 
L 3122 2828 
Q 2878 2963 2633 3030 
Q 2388 3097 2138 3097 
Q 1578 3097 1268 2742 
Q 959 2388 959 1747 
Q 959 1106 1268 751 
Q 1578 397 2138 397 
Q 2388 397 2633 464 
Q 2878 531 3122 666 
L 3122 134 
Q 2881 22 2623 -34 
Q 2366 -91 2075 -91 
Q 1284 -91 818 406 
Q 353 903 353 1747 
Q 353 2603 823 3093 
Q 1294 3584 2113 3584 
Q 2378 3584 2631 3529 
Q 2884 3475 3122 3366 
z
" transform="scale(0.015625)"/>
       <path id="DejaVuSans-20" transform="scale(0.015625)"/>
       <path id="DejaVuSans-72" d="M 2631 2963 
Q 2534 3019 2420 3045 
Q 2306 3072 2169 3072 
Q 1681 3072 1420 2755 
Q 1159 2438 1159 1844 
L 1159 0 
L 581 0 
L 581 3500 
L 1159 3500 
L 1159 2956 
Q 1341 3275 1631 3429 
Q 1922 3584 2338 3584 
Q 2397 3584 2469 3576 
Q 2541 3569 2628 3553 
L 2631 2963 
z
" transform="scale(0.015625)"/>
       <path id="DejaVuSans-6f" d="M 1959 3097 
Q 1497 3097 1228 2736 
Q 959 2375 959 1747 
Q 959 1119 1226 758 
Q 1494 397 1959 397 
Q 2419 397 2687 759 
Q 2956 1122 2956 1747 
Q 2956 2369 2687 2733 
Q 2419 3097 1959 3097 
z
M 1959 3584 
Q 2709 3584 3137 3096 
Q 3566 2609 3566 1747 
Q 3566 888 3137 398 
Q 2709 -91 1959 -91 
Q 1206 -91 779 398 
Q 353 888 353 1747 
Q 353 2609 779 3096 
Q 1206 3584 1959 3584 
z
" transform="scale(0.015625)"/>
      </defs>
      <use xlink:href="#DejaVuSans-64"/>
      <use xlink:href="#DejaVuSans-69" x="63.476562"/>
      <use xlink:href="#DejaVuSans-73" x="91.259766"/>
      <use xlink:href="#DejaVuSans-74" x="143.359375"/>
      <use xlink:href="#DejaVuSans-61" x="182.568359"/>
      <use xlink:href="#DejaVuSans-6e" x="243.847656"/>
      <use xlink:href="#DejaVuSans-63" x="307.226562"/>
      <use xlink:href="#DejaVuSans-65" x="362.207031"/>
      <use xlink:href="#DejaVuSans-20" x="423.730469"/>
      <use xlink:href="#DejaVuSans-72" x="455.517578"/>
      <use xlink:href="#DejaVuSans-61" x="496.630859"/>
      <use xlink:href="#DejaVuSans-74" x="557.910156"/>
      <use xlink:href="#DejaVuSans-69" x="597.119141"/>
      <use xlink:href="#DejaVuSans-6f" x="624.902344"/>
     </g>
    </g>
   </g>
   <g id="line2d_14">
    <path d="M 51.646534 106.564124 
L 52.145986 17.892727 
L 58.139413 17.892727 
L 58.638865 46.580532 
L 59.138317 17.892727 
L 67.129552 17.892727 
L 67.629004 103.956142 
L 68.128457 17.892727 
L 68.627909 114.388071 
L 69.127361 17.892727 
L 78.616953 17.892727 
L 79.116405 43.97255 
L 79.615857 17.892727 
L 82.61257 17.892727 
L 83.112023 33.540621 
L 83.611475 33.540621 
L 84.110927 17.892727 
L 84.610379 218.707361 
L 85.109831 171.763681 
L 85.609284 17.892727 
L 86.108736 17.892727 
L 86.608188 124.82 
L 87.10764 17.892727 
L 87.607092 57.012461 
L 88.106545 17.892727 
L 88.605997 130.035965 
L 89.105449 17.892727 
L 93.600519 17.892727 
L 94.099971 57.012461 
L 94.599423 17.892727 
L 96.09778 17.892727 
L 96.597232 200.451486 
L 97.096684 17.892727 
L 97.596136 111.780089 
L 98.095588 103.956142 
L 98.595041 67.44439 
L 99.094493 218.707361 
L 99.593945 96.132195 
L 100.093397 17.892727 
L 100.592849 17.892727 
L 101.092302 169.155698 
L 101.591754 200.451486 
L 102.091206 161.331752 
L 102.590658 229.13929 
L 103.09011 17.892727 
L 104.089015 17.892727 
L 104.588467 231.747273 
L 105.087919 226.531308 
L 105.587371 17.892727 
L 106.086824 145.683858 
L 106.586276 17.892727 
L 107.58518 17.892727 
L 108.084632 143.075876 
L 108.584085 70.052373 
L 109.083537 17.892727 
L 109.582989 197.843503 
L 110.082441 70.052373 
L 110.581893 176.979645 
L 111.580798 96.132195 
L 112.08025 17.892727 
L 112.579702 187.411574 
L 113.079154 176.979645 
L 113.578607 17.892727 
L 115.076963 17.892727 
L 115.576415 158.723769 
L 116.075868 17.892727 
L 116.57532 30.932639 
L 117.074772 96.132195 
L 117.574224 17.892727 
L 118.073676 171.763681 
L 118.573129 17.892727 
L 119.072581 62.228426 
L 119.572033 218.707361 
L 120.071485 17.892727 
L 120.570937 75.268337 
L 121.07039 17.892727 
L 121.569842 231.747273 
L 122.069294 17.892727 
L 122.568746 17.892727 
L 123.068198 132.643947 
L 123.567651 17.892727 
L 124.067103 17.892727 
L 124.566555 218.707361 
L 125.066007 187.411574 
L 125.565459 33.540621 
L 126.064912 17.892727 
L 127.063816 17.892727 
L 127.563268 28.324656 
L 128.06272 184.803592 
L 128.562173 17.892727 
L 129.061625 143.075876 
L 129.561077 169.155698 
L 130.060529 17.892727 
L 131.059434 17.892727 
L 131.558886 148.29184 
L 132.058338 17.892727 
L 132.55779 150.899823 
L 133.057242 221.315344 
L 133.556695 223.923326 
L 134.056147 137.859911 
L 134.555599 210.883415 
L 135.055051 153.507805 
L 135.554503 17.892727 
L 136.053956 223.923326 
L 136.553408 17.892727 
L 137.05286 195.235521 
L 137.552312 17.892727 
L 138.051764 17.892727 
L 138.551216 216.099379 
L 139.050669 101.34816 
L 139.550121 111.780089 
L 140.049573 17.892727 
L 140.549025 218.707361 
L 141.048477 158.723769 
L 141.54793 17.892727 
L 142.047382 205.66745 
L 142.546834 226.531308 
L 143.046286 229.13929 
L 144.045191 205.66745 
L 144.544643 226.531308 
L 145.044095 17.892727 
L 145.543547 17.892727 
L 146.542452 221.315344 
L 147.041904 101.34816 
L 147.541356 210.883415 
L 148.040808 218.707361 
L 148.54026 208.275432 
L 149.039713 231.747273 
L 149.539165 226.531308 
L 150.038617 17.892727 
L 150.538069 226.531308 
L 151.037521 231.747273 
L 151.536974 221.315344 
L 152.036426 223.923326 
L 152.535878 231.747273 
L 153.534782 231.747273 
L 154.034235 17.892727 
L 154.533687 145.683858 
L 155.033139 231.747273 
L 155.532591 143.075876 
L 156.032043 221.315344 
L 156.531496 221.315344 
L 157.030948 226.531308 
L 157.5304 221.315344 
L 158.029852 231.747273 
L 158.529304 231.747273 
L 159.028757 229.13929 
L 159.528209 229.13929 
L 160.027661 226.531308 
L 160.527113 226.531308 
L 161.026565 221.315344 
L 161.526018 208.275432 
L 162.524922 64.836408 
L 163.024374 174.371663 
L 163.523826 226.531308 
L 164.023279 226.531308 
L 164.522731 203.059468 
L 165.022183 213.491397 
L 165.521635 231.747273 
L 166.021087 216.099379 
L 166.52054 226.531308 
L 167.519444 231.747273 
L 168.018896 226.531308 
L 168.518348 231.747273 
L 169.017801 213.491397 
L 169.517253 210.883415 
L 170.016705 169.155698 
L 170.516157 231.747273 
L 171.015609 231.747273 
L 171.515062 226.531308 
L 172.014514 231.747273 
L 173.51287 231.747273 
L 174.012323 223.923326 
L 174.511775 231.747273 
L 175.011227 226.531308 
L 176.010131 226.531308 
L 176.509584 231.747273 
L 177.009036 140.467894 
L 177.508488 166.547716 
L 178.00794 231.747273 
L 178.507392 216.099379 
L 179.006845 231.747273 
L 179.506297 229.13929 
L 180.005749 17.892727 
L 180.505201 231.747273 
L 181.004653 229.13929 
L 181.504106 221.315344 
L 182.003558 231.747273 
L 182.50301 226.531308 
L 183.002462 226.531308 
L 183.501914 130.035965 
L 184.001366 226.531308 
L 184.500819 231.747273 
L 185.000271 229.13929 
L 185.499723 218.707361 
L 185.999175 231.747273 
L 186.99808 210.883415 
L 187.497532 70.052373 
L 187.996984 231.747273 
L 188.496436 156.115787 
L 188.995888 221.315344 
L 189.495341 231.747273 
L 189.994793 221.315344 
L 190.494245 231.747273 
L 190.993697 231.747273 
L 191.493149 226.531308 
L 191.992602 231.747273 
L 192.492054 218.707361 
L 192.991506 231.747273 
L 193.490958 231.747273 
L 193.99041 226.531308 
L 194.489863 231.747273 
L 194.989315 221.315344 
L 195.488767 231.747273 
L 195.988219 216.099379 
L 196.987124 226.531308 
L 197.486576 221.315344 
L 197.986028 231.747273 
L 198.48548 221.315344 
L 198.984932 80.484302 
L 199.484385 218.707361 
L 199.983837 218.707361 
L 200.483289 213.491397 
L 200.982741 229.13929 
L 201.482193 226.531308 
L 201.981646 226.531308 
L 202.98055 231.747273 
L 203.979454 226.531308 
L 204.478907 226.531308 
L 204.978359 218.707361 
L 205.977263 171.763681 
L 206.476715 231.747273 
L 206.976168 226.531308 
L 207.47562 231.747273 
L 207.975072 218.707361 
L 208.474524 218.707361 
L 208.973976 231.747273 
L 209.473429 231.747273 
L 209.972881 226.531308 
L 210.472333 226.531308 
L 210.971785 221.315344 
L 211.97069 221.315344 
L 212.470142 226.531308 
L 212.969594 226.531308 
L 213.469046 231.747273 
L 213.968498 218.707361 
L 214.467951 226.531308 
L 214.967403 231.747273 
L 215.466855 200.451486 
L 215.966307 221.315344 
L 216.465759 203.059468 
L 216.965212 221.315344 
L 217.464664 231.747273 
L 217.964116 231.747273 
L 218.463568 226.531308 
L 218.96302 205.66745 
L 219.462473 226.531308 
L 219.961925 231.747273 
L 220.461377 174.371663 
L 221.460281 231.747273 
L 221.959734 221.315344 
L 222.958638 231.747273 
L 223.45809 226.531308 
L 223.957542 145.683858 
L 224.456995 226.531308 
L 225.455899 226.531308 
L 225.955351 221.315344 
L 226.454803 226.531308 
L 226.954255 218.707361 
L 227.453708 226.531308 
L 227.95316 231.747273 
L 228.452612 218.707361 
L 228.952064 226.531308 
L 229.451516 218.707361 
L 229.950969 231.747273 
L 230.450421 231.747273 
L 230.949873 221.315344 
L 231.449325 226.531308 
L 231.948777 221.315344 
L 232.947682 226.531308 
L 233.447134 231.747273 
L 233.946586 208.275432 
L 234.446038 229.13929 
L 234.945491 226.531308 
L 235.444943 231.747273 
L 235.944395 226.531308 
L 236.443847 226.531308 
L 236.943299 216.099379 
L 237.442752 226.531308 
L 237.942204 231.747273 
L 238.441656 223.923326 
L 238.941108 226.531308 
L 238.941108 226.531308 
" clip-path="url(#pfe1cc32aa1)" style="fill: none; stroke: #1f77b4; stroke-width: 1.5; stroke-linecap: square"/>
   </g>
   <g id="line2d_15">
    <path d="M 51.646534 140.467894 
L 52.145986 62.228426 
L 52.645438 17.892727 
L 53.144891 208.275432 
L 53.644343 17.892727 
L 54.143795 226.531308 
L 54.643247 17.892727 
L 55.142699 17.892727 
L 55.642152 70.052373 
L 56.141604 54.404479 
L 56.641056 216.099379 
L 57.140508 114.388071 
L 57.63996 226.531308 
L 58.139413 221.315344 
L 58.638865 174.371663 
L 59.138317 174.371663 
L 59.637769 218.707361 
L 60.137221 226.531308 
L 60.636674 223.923326 
L 61.136126 163.939734 
L 61.635578 226.531308 
L 62.13503 221.315344 
L 63.633387 221.315344 
L 64.132839 161.331752 
L 64.632291 221.315344 
L 65.131743 221.315344 
L 65.631196 226.531308 
L 66.130648 96.132195 
L 66.6301 17.892727 
L 67.129552 17.892727 
L 67.629004 158.723769 
L 68.128457 226.531308 
L 68.627909 231.747273 
L 69.127361 226.531308 
L 69.626813 231.747273 
L 70.126265 17.892727 
L 70.625718 221.315344 
L 71.12517 116.996053 
L 71.624622 153.507805 
L 72.124074 203.059468 
L 72.623526 231.747273 
L 73.122979 218.707361 
L 73.622431 119.604035 
L 74.121883 137.859911 
L 74.621335 161.331752 
L 75.120787 208.275432 
L 75.62024 30.932639 
L 76.119692 153.507805 
L 76.619144 221.315344 
L 77.118596 231.747273 
L 77.618048 17.892727 
L 78.117501 226.531308 
L 78.616953 190.019557 
L 79.116405 77.876319 
L 79.615857 17.892727 
L 80.614762 200.451486 
L 81.114214 205.66745 
L 81.613666 17.892727 
L 85.109831 17.892727 
L 85.609284 38.756585 
L 86.108736 17.892727 
L 87.607092 17.892727 
L 88.106545 124.82 
L 88.605997 17.892727 
L 89.105449 17.892727 
L 89.604901 54.404479 
L 90.104353 36.148603 
L 90.603806 25.716674 
L 91.103258 223.923326 
L 91.60271 200.451486 
L 92.102162 98.740177 
L 93.101067 17.892727 
L 93.600519 216.099379 
L 94.099971 200.451486 
L 94.599423 208.275432 
L 95.098875 148.29184 
L 95.598327 216.099379 
L 96.09778 218.707361 
L 96.597232 203.059468 
L 97.096684 218.707361 
L 97.596136 208.275432 
L 98.095588 213.491397 
L 98.595041 184.803592 
L 99.094493 231.747273 
L 99.593945 226.531308 
L 100.093397 223.923326 
L 100.592849 197.843503 
L 101.092302 221.315344 
L 101.591754 184.803592 
L 102.091206 231.747273 
L 102.590658 216.099379 
L 103.589563 231.747273 
L 104.089015 231.747273 
L 104.588467 223.923326 
L 105.087919 226.531308 
L 105.587371 231.747273 
L 106.086824 221.315344 
L 106.586276 231.747273 
L 107.085728 216.099379 
L 107.58518 205.66745 
L 108.084632 226.531308 
L 108.584085 221.315344 
L 109.083537 208.275432 
L 109.582989 221.315344 
L 110.082441 218.707361 
L 110.581893 208.275432 
L 111.081346 218.707361 
L 111.580798 221.315344 
L 112.08025 197.843503 
L 112.579702 218.707361 
L 113.079154 218.707361 
L 113.578607 226.531308 
L 114.078059 231.747273 
L 114.577511 226.531308 
L 115.076963 218.707361 
L 115.576415 221.315344 
L 116.075868 231.747273 
L 116.57532 226.531308 
L 117.074772 226.531308 
L 117.574224 216.099379 
L 119.072581 231.747273 
L 120.071485 210.883415 
L 120.570937 226.531308 
L 121.07039 223.923326 
L 121.569842 223.923326 
L 122.069294 231.747273 
L 122.568746 221.315344 
L 123.068198 231.747273 
L 123.567651 218.707361 
L 124.067103 218.707361 
L 124.566555 221.315344 
L 125.066007 226.531308 
L 126.064912 226.531308 
L 126.564364 203.059468 
L 127.063816 231.747273 
L 127.563268 226.531308 
L 128.06272 231.747273 
L 128.562173 226.531308 
L 129.061625 223.923326 
L 129.561077 226.531308 
L 130.060529 208.275432 
L 130.559981 223.923326 
L 131.059434 226.531308 
L 131.558886 197.843503 
L 132.55779 226.531308 
L 133.057242 231.747273 
L 134.056147 231.747273 
L 134.555599 223.923326 
L 135.055051 203.059468 
L 135.554503 231.747273 
L 136.053956 213.491397 
L 136.553408 218.707361 
L 137.05286 210.883415 
L 137.552312 218.707361 
L 138.051764 231.747273 
L 138.551216 216.099379 
L 139.050669 226.531308 
L 139.550121 223.923326 
L 140.049573 213.491397 
L 140.549025 231.747273 
L 141.048477 216.099379 
L 141.54793 226.531308 
L 142.047382 223.923326 
L 142.546834 208.275432 
L 143.046286 221.315344 
L 143.545738 213.491397 
L 144.045191 218.707361 
L 144.544643 231.747273 
L 145.044095 226.531308 
L 145.543547 226.531308 
L 146.042999 218.707361 
L 146.542452 226.531308 
L 147.041904 182.19561 
L 147.541356 77.876319 
L 148.040808 216.099379 
L 148.54026 226.531308 
L 149.039713 223.923326 
L 149.539165 231.747273 
L 150.538069 221.315344 
L 151.037521 208.275432 
L 151.536974 223.923326 
L 152.036426 208.275432 
L 152.535878 150.899823 
L 153.03533 174.371663 
L 153.534782 231.747273 
L 154.034235 216.099379 
L 154.533687 221.315344 
L 155.532591 205.66745 
L 156.032043 226.531308 
L 156.531496 231.747273 
L 157.030948 208.275432 
L 157.5304 153.507805 
L 158.029852 200.451486 
L 158.529304 208.275432 
L 159.028757 223.923326 
L 159.528209 208.275432 
L 160.027661 150.899823 
L 160.527113 226.531308 
L 161.026565 203.059468 
L 161.526018 213.491397 
L 162.02547 226.531308 
L 163.024374 226.531308 
L 163.523826 216.099379 
L 164.023279 226.531308 
L 164.522731 192.627539 
L 165.022183 218.707361 
L 165.521635 190.019557 
L 166.021087 226.531308 
L 166.52054 223.923326 
L 167.019992 231.747273 
L 167.519444 218.707361 
L 168.018896 119.604035 
L 168.518348 49.188514 
L 169.017801 223.923326 
L 169.517253 226.531308 
L 170.016705 226.531308 
L 170.516157 231.747273 
L 171.015609 223.923326 
L 172.014514 148.29184 
L 172.513966 223.923326 
L 173.51287 223.923326 
L 174.012323 231.747273 
L 174.511775 221.315344 
L 175.011227 223.923326 
L 175.510679 231.747273 
L 176.010131 145.683858 
L 176.509584 231.747273 
L 177.009036 231.747273 
L 177.508488 210.883415 
L 178.00794 231.747273 
L 178.507392 223.923326 
L 179.006845 223.923326 
L 179.506297 231.747273 
L 180.005749 226.531308 
L 180.505201 223.923326 
L 181.004653 192.627539 
L 181.504106 216.099379 
L 182.003558 184.803592 
L 182.50301 205.66745 
L 183.002462 231.747273 
L 183.501914 226.531308 
L 184.001366 216.099379 
L 184.500819 192.627539 
L 185.000271 148.29184 
L 185.499723 221.315344 
L 185.999175 223.923326 
L 186.498627 208.275432 
L 186.99808 231.747273 
L 187.497532 179.587627 
L 187.996984 218.707361 
L 188.496436 226.531308 
L 188.995888 226.531308 
L 189.495341 223.923326 
L 189.994793 231.747273 
L 190.993697 208.275432 
L 191.493149 229.13929 
L 191.992602 106.564124 
L 192.492054 208.275432 
L 192.991506 218.707361 
L 193.490958 223.923326 
L 193.99041 221.315344 
L 194.489863 221.315344 
L 194.989315 210.883415 
L 195.488767 208.275432 
L 195.988219 208.275432 
L 196.487671 148.29184 
L 196.987124 218.707361 
L 197.486576 231.747273 
L 197.986028 216.099379 
L 198.48548 205.66745 
L 198.984932 226.531308 
L 199.484385 200.451486 
L 199.983837 226.531308 
L 200.483289 229.13929 
L 200.982741 218.707361 
L 201.482193 226.531308 
L 201.981646 221.315344 
L 202.481098 231.747273 
L 202.98055 124.82 
L 203.480002 213.491397 
L 203.979454 216.099379 
L 204.478907 221.315344 
L 204.978359 163.939734 
L 205.477811 231.747273 
L 205.977263 223.923326 
L 206.476715 223.923326 
L 206.976168 226.531308 
L 207.47562 221.315344 
L 207.975072 192.627539 
L 208.474524 216.099379 
L 208.973976 200.451486 
L 209.473429 210.883415 
L 209.972881 150.899823 
L 210.472333 208.275432 
L 210.971785 148.29184 
L 211.471237 218.707361 
L 211.97069 231.747273 
L 212.470142 226.531308 
L 212.969594 216.099379 
L 213.469046 226.531308 
L 213.968498 231.747273 
L 214.467951 231.747273 
L 214.967403 221.315344 
L 215.466855 231.747273 
L 215.966307 226.531308 
L 217.464664 226.531308 
L 217.964116 221.315344 
L 218.463568 221.315344 
L 218.96302 226.531308 
L 221.460281 226.531308 
L 221.959734 195.235521 
L 222.459186 231.747273 
L 222.958638 226.531308 
L 223.45809 231.747273 
L 223.957542 226.531308 
L 224.456995 226.531308 
L 224.956447 216.099379 
L 225.455899 229.13929 
L 225.955351 218.707361 
L 226.454803 223.923326 
L 226.954255 213.491397 
L 227.453708 184.803592 
L 227.95316 226.531308 
L 228.452612 231.747273 
L 228.952064 182.19561 
L 229.451516 213.491397 
L 229.950969 231.747273 
L 230.450421 216.099379 
L 231.449325 226.531308 
L 231.948777 205.66745 
L 232.44823 205.66745 
L 232.947682 231.747273 
L 233.447134 226.531308 
L 233.946586 197.843503 
L 234.446038 223.923326 
L 234.945491 226.531308 
L 235.444943 203.059468 
L 235.944395 231.747273 
L 237.442752 208.275432 
L 237.942204 148.29184 
L 238.441656 226.531308 
L 238.941108 179.587627 
L 239.44056 231.747273 
L 239.940013 216.099379 
L 240.439465 226.531308 
L 240.938917 231.747273 
L 241.438369 223.923326 
L 241.937821 208.275432 
L 242.437274 223.923326 
L 242.936726 231.747273 
L 243.436178 221.315344 
L 243.93563 226.531308 
L 244.435082 216.099379 
L 244.934535 208.275432 
L 245.433987 223.923326 
L 245.933439 231.747273 
L 246.432891 36.148603 
L 246.932343 223.923326 
L 247.431796 231.747273 
L 247.931248 200.451486 
L 248.4307 218.707361 
L 248.930152 218.707361 
L 249.429604 229.13929 
L 249.929057 231.747273 
L 250.428509 148.29184 
L 250.927961 221.315344 
L 251.427413 205.66745 
L 251.926865 218.707361 
L 252.426318 221.315344 
L 252.92577 231.747273 
L 253.425222 223.923326 
L 253.924674 223.923326 
L 254.424126 231.747273 
L 254.923579 213.491397 
L 255.423031 231.747273 
L 255.922483 231.747273 
L 256.421935 148.29184 
L 256.921387 213.491397 
L 257.42084 226.531308 
L 258.419744 226.531308 
L 258.919196 216.099379 
L 259.418648 200.451486 
L 259.918101 231.747273 
L 260.417553 221.315344 
L 260.917005 208.275432 
L 261.416457 226.531308 
L 261.915909 197.843503 
L 262.914814 226.531308 
L 263.414266 226.531308 
L 263.913718 208.275432 
L 264.41317 213.491397 
L 264.912623 208.275432 
L 265.412075 218.707361 
L 265.911527 221.315344 
L 266.410979 231.747273 
L 266.910431 203.059468 
L 267.409884 223.923326 
L 267.909336 203.059468 
L 268.408788 221.315344 
L 268.90824 218.707361 
L 269.407692 226.531308 
L 269.907144 192.627539 
L 270.406597 216.099379 
L 270.906049 213.491397 
L 271.405501 203.059468 
L 271.904953 231.747273 
L 272.404405 195.235521 
L 272.903858 231.747273 
L 273.40331 218.707361 
L 273.902762 226.531308 
L 274.402214 231.747273 
L 275.401119 221.315344 
L 275.900571 203.059468 
L 276.400023 218.707361 
L 276.899475 203.059468 
L 277.398927 179.587627 
L 277.89838 210.883415 
L 278.397832 179.587627 
L 278.897284 190.019557 
L 279.396736 208.275432 
L 279.896188 231.747273 
L 280.395641 208.275432 
L 280.895093 231.747273 
L 281.394545 223.923326 
L 281.893997 203.059468 
L 282.892902 226.531308 
L 283.392354 208.275432 
L 283.891806 231.747273 
L 284.391258 216.099379 
L 284.89071 137.859911 
L 285.390163 205.66745 
L 285.889615 231.747273 
L 286.389067 226.531308 
L 286.888519 216.099379 
L 287.387971 231.747273 
L 287.887424 187.411574 
L 288.386876 213.491397 
L 288.886328 231.747273 
L 289.38578 231.747273 
L 289.885232 205.66745 
L 290.384685 208.275432 
L 290.884137 218.707361 
L 291.383589 231.747273 
L 291.883041 221.315344 
L 292.881946 221.315344 
L 293.381398 216.099379 
L 293.88085 208.275432 
L 294.380302 231.747273 
L 294.879754 231.747273 
L 295.878659 208.275432 
L 296.378111 226.531308 
L 296.877563 231.747273 
L 297.377015 179.587627 
L 297.876468 218.707361 
L 298.37592 226.531308 
L 298.875372 231.747273 
L 299.374824 208.275432 
L 299.874276 223.923326 
L 300.373729 208.275432 
L 301.372633 231.747273 
L 301.872085 218.707361 
L 302.371537 223.923326 
L 302.87099 216.099379 
L 303.370442 223.923326 
L 303.869894 203.059468 
L 304.369346 221.315344 
L 304.868798 229.13929 
L 305.368251 190.019557 
L 305.867703 203.059468 
L 306.367155 226.531308 
L 307.366059 221.315344 
L 307.865512 226.531308 
L 308.864416 226.531308 
L 309.363868 231.747273 
L 309.86332 226.531308 
L 310.362773 226.531308 
L 310.862225 153.507805 
L 311.361677 221.315344 
L 311.861129 218.707361 
L 312.360581 223.923326 
L 312.860034 208.275432 
L 313.359486 218.707361 
L 313.858938 221.315344 
L 314.35839 203.059468 
L 314.857842 226.531308 
L 315.357294 231.747273 
L 315.856747 223.923326 
L 316.356199 221.315344 
L 316.855651 216.099379 
L 317.355103 221.315344 
L 317.854555 231.747273 
L 318.354008 17.892727 
L 318.85346 226.531308 
L 319.352912 210.883415 
L 319.852364 221.315344 
L 320.351816 229.13929 
L 320.851269 231.747273 
L 321.350721 223.923326 
L 321.850173 190.019557 
L 322.349625 226.531308 
L 322.849077 226.531308 
L 323.34853 221.315344 
L 323.847982 226.531308 
L 324.347434 208.275432 
L 324.846886 223.923326 
L 325.346338 223.923326 
L 325.845791 216.099379 
L 326.345243 174.371663 
L 326.844695 231.747273 
L 327.344147 218.707361 
L 327.843599 216.099379 
L 328.343052 148.29184 
L 328.842504 231.747273 
L 329.341956 223.923326 
L 329.841408 226.531308 
L 330.34086 192.627539 
L 330.840313 231.747273 
L 331.339765 226.531308 
L 331.839217 223.923326 
L 332.338669 49.188514 
L 332.838121 17.892727 
L 333.337574 223.923326 
L 333.837026 231.747273 
L 334.83593 221.315344 
L 335.335382 231.747273 
L 335.834835 229.13929 
L 336.334287 179.587627 
L 336.833739 223.923326 
L 337.333191 231.747273 
L 337.832643 218.707361 
L 338.332096 226.531308 
L 338.831548 223.923326 
L 339.331 226.531308 
L 339.830452 226.531308 
L 340.329904 216.099379 
L 340.829357 221.315344 
L 341.328809 216.099379 
L 341.828261 231.747273 
L 342.327713 218.707361 
L 342.827165 221.315344 
L 343.326618 218.707361 
L 343.82607 223.923326 
L 344.325522 218.707361 
L 344.824974 216.099379 
L 345.324426 145.683858 
L 345.823879 226.531308 
L 346.323331 229.13929 
L 346.822783 226.531308 
L 347.322235 231.747273 
L 348.32114 221.315344 
L 348.820592 208.275432 
L 349.320044 153.507805 
L 349.819496 221.315344 
L 350.818401 226.531308 
L 351.317853 223.923326 
L 352.316757 223.923326 
L 352.816209 216.099379 
L 353.315662 218.707361 
L 353.815114 231.747273 
L 354.314566 216.099379 
L 354.814018 226.531308 
L 355.812923 226.531308 
L 356.312375 218.707361 
L 356.811827 229.13929 
L 357.311279 231.747273 
L 357.810731 226.531308 
L 358.310183 226.531308 
L 358.809636 229.13929 
L 359.309088 213.491397 
L 359.80854 216.099379 
L 360.307992 132.643947 
L 360.807444 213.491397 
L 361.306897 218.707361 
L 361.806349 226.531308 
L 362.305801 216.099379 
L 362.805253 223.923326 
L 363.304705 226.531308 
L 364.30361 221.315344 
L 364.803062 226.531308 
L 365.302514 216.099379 
L 365.801966 231.747273 
L 366.301419 231.747273 
L 366.800871 221.315344 
L 367.300323 184.803592 
L 367.799775 231.747273 
L 368.299227 221.315344 
L 368.79868 231.747273 
L 369.298132 226.531308 
L 369.797584 124.82 
L 370.297036 231.747273 
L 370.796488 218.707361 
L 371.295941 223.923326 
L 371.795393 218.707361 
L 372.294845 216.099379 
L 372.794297 216.099379 
L 373.293749 221.315344 
L 373.793202 231.747273 
L 374.292654 210.883415 
L 374.792106 231.747273 
L 375.291558 218.707361 
L 375.79101 218.707361 
L 376.290463 231.747273 
L 376.789915 221.315344 
L 377.788819 231.747273 
L 378.288271 226.531308 
L 378.787724 218.707361 
L 379.287176 226.531308 
L 379.786628 231.747273 
L 380.28608 216.099379 
L 380.785532 226.531308 
L 381.284985 223.923326 
L 381.784437 231.747273 
L 382.283889 226.531308 
L 382.783341 210.883415 
L 383.282793 208.275432 
L 383.782246 218.707361 
L 384.281698 208.275432 
L 384.78115 231.747273 
L 385.780054 231.747273 
L 386.279507 218.707361 
L 386.778959 216.099379 
L 387.278411 223.923326 
L 387.777863 223.923326 
L 388.277315 208.275432 
L 388.776768 218.707361 
L 389.27622 223.923326 
L 389.775672 49.188514 
L 390.275124 200.451486 
L 390.774576 226.531308 
L 391.274029 226.531308 
L 391.773481 166.547716 
L 392.272933 231.747273 
L 392.772385 226.531308 
L 393.271837 226.531308 
L 393.77129 208.275432 
L 394.270742 221.315344 
L 394.770194 218.707361 
L 395.269646 226.531308 
L 395.769098 210.883415 
L 396.268551 176.979645 
L 396.768003 184.803592 
L 397.267455 223.923326 
L 397.766907 226.531308 
L 398.266359 231.747273 
L 398.765812 231.747273 
L 399.265264 226.531308 
L 399.764716 197.843503 
L 399.764716 197.843503 
" clip-path="url(#pfe1cc32aa1)" style="fill: none; stroke: #ff7f0e; stroke-width: 1.5; stroke-linecap: square"/>
   </g>
   <g id="patch_3">
    <path d="M 34.240625 242.44 
L 34.240625 7.2 
" style="fill: none; stroke: #000000; stroke-width: 0.8; stroke-linejoin: miter; stroke-linecap: square"/>
   </g>
   <g id="patch_4">
    <path d="M 417.170625 242.44 
L 417.170625 7.2 
" style="fill: none; stroke: #000000; stroke-width: 0.8; stroke-linejoin: miter; stroke-linecap: square"/>
   </g>
   <g id="patch_5">
    <path d="M 34.240625 242.44 
L 417.170625 242.44 
" style="fill: none; stroke: #000000; stroke-width: 0.8; stroke-linejoin: miter; stroke-linecap: square"/>
   </g>
   <g id="patch_6">
    <path d="M 34.240625 7.2 
L 417.170625 7.2 
" style="fill: none; stroke: #000000; stroke-width: 0.8; stroke-linejoin: miter; stroke-linecap: square"/>
   </g>
   <g id="legend_1">
    <g id="patch_7">
     <path d="M 339.397187 44.55625 
L 410.170625 44.55625 
Q 412.170625 44.55625 412.170625 42.55625 
L 412.170625 14.2 
Q 412.170625 12.2 410.170625 12.2 
L 339.397187 12.2 
Q 337.397187 12.2 337.397187 14.2 
L 337.397187 42.55625 
Q 337.397187 44.55625 339.397187 44.55625 
z
" style="fill: #ffffff; opacity: 0.8; stroke: #cccccc; stroke-linejoin: miter"/>
    </g>
    <g id="line2d_16">
     <path d="M 341.397187 20.298438 
L 351.397187 20.298438 
L 361.397187 20.298438 
" style="fill: none; stroke: #1f77b4; stroke-width: 1.5; stroke-linecap: square"/>
    </g>
    <g id="text_16">
     <!-- DQN -->
     <g transform="translate(369.397187 23.798438)scale(0.1 -0.1)">
      <defs>
       <path id="DejaVuSans-44" d="M 1259 4147 
L 1259 519 
L 2022 519 
Q 2988 519 3436 956 
Q 3884 1394 3884 2338 
Q 3884 3275 3436 3711 
Q 2988 4147 2022 4147 
L 1259 4147 
z
M 628 4666 
L 1925 4666 
Q 3281 4666 3915 4102 
Q 4550 3538 4550 2338 
Q 4550 1131 3912 565 
Q 3275 0 1925 0 
L 628 0 
L 628 4666 
z
" transform="scale(0.015625)"/>
       <path id="DejaVuSans-51" d="M 2522 4238 
Q 1834 4238 1429 3725 
Q 1025 3213 1025 2328 
Q 1025 1447 1429 934 
Q 1834 422 2522 422 
Q 3209 422 3611 934 
Q 4013 1447 4013 2328 
Q 4013 3213 3611 3725 
Q 3209 4238 2522 4238 
z
M 3406 84 
L 4238 -825 
L 3475 -825 
L 2784 -78 
Q 2681 -84 2626 -87 
Q 2572 -91 2522 -91 
Q 1538 -91 948 567 
Q 359 1225 359 2328 
Q 359 3434 948 4092 
Q 1538 4750 2522 4750 
Q 3503 4750 4090 4092 
Q 4678 3434 4678 2328 
Q 4678 1516 4351 937 
Q 4025 359 3406 84 
z
" transform="scale(0.015625)"/>
       <path id="DejaVuSans-4e" d="M 628 4666 
L 1478 4666 
L 3547 763 
L 3547 4666 
L 4159 4666 
L 4159 0 
L 3309 0 
L 1241 3903 
L 1241 0 
L 628 0 
L 628 4666 
z
" transform="scale(0.015625)"/>
      </defs>
      <use xlink:href="#DejaVuSans-44"/>
      <use xlink:href="#DejaVuSans-51" x="77.001953"/>
      <use xlink:href="#DejaVuSans-4e" x="155.712891"/>
     </g>
    </g>
    <g id="line2d_17">
     <path d="M 341.397187 34.976563 
L 351.397187 34.976563 
L 361.397187 34.976563 
" style="fill: none; stroke: #ff7f0e; stroke-width: 1.5; stroke-linecap: square"/>
    </g>
    <g id="text_17">
     <!-- IQLearn -->
     <g transform="translate(369.397187 38.476563)scale(0.1 -0.1)">
      <defs>
       <path id="DejaVuSans-49" d="M 628 4666 
L 1259 4666 
L 1259 0 
L 628 0 
L 628 4666 
z
" transform="scale(0.015625)"/>
       <path id="DejaVuSans-4c" d="M 628 4666 
L 1259 4666 
L 1259 531 
L 3531 531 
L 3531 0 
L 628 0 
L 628 4666 
z
" transform="scale(0.015625)"/>
      </defs>
      <use xlink:href="#DejaVuSans-49"/>
      <use xlink:href="#DejaVuSans-51" x="29.492188"/>
      <use xlink:href="#DejaVuSans-4c" x="108.203125"/>
      <use xlink:href="#DejaVuSans-65" x="162.166016"/>
      <use xlink:href="#DejaVuSans-61" x="223.689453"/>
      <use xlink:href="#DejaVuSans-72" x="284.96875"/>
      <use xlink:href="#DejaVuSans-6e" x="324.332031"/>
     </g>
    </g>
   </g>
  </g>
 </g>
 <defs>
  <clipPath id="pfe1cc32aa1">
   <rect x="34.240625" y="7.2" width="382.93" height="235.24"/>
  </clipPath>
 </defs>
</svg>
