<?xml version="1.0" encoding="utf-8" standalone="no"?>
<!DOCTYPE svg PUBLIC "-//W3C//DTD SVG 1.1//EN"
  "http://www.w3.org/Graphics/SVG/1.1/DTD/svg11.dtd">
<svg xmlns:xlink="http://www.w3.org/1999/xlink" width="424.433125pt" height="279.755504pt" viewBox="0 0 424.433125 279.755504" xmlns="http://www.w3.org/2000/svg" version="1.1">
 <metadata>
  <rdf:RDF xmlns:dc="http://purl.org/dc/elements/1.1/" xmlns:cc="http://creativecommons.org/ns#" xmlns:rdf="http://www.w3.org/1999/02/22-rdf-syntax-ns#">
   <cc:Work>
    <dc:type rdf:resource="http://purl.org/dc/dcmitype/StillImage"/>
    <dc:date>2023-11-10T21:51:33.374758</dc:date>
    <dc:format>image/svg+xml</dc:format>
    <dc:creator>
     <cc:Agent>
      <dc:title>Matplotlib v3.7.1, https://matplotlib.org/</dc:title>
     </cc:Agent>
    </dc:creator>
   </cc:Work>
  </rdf:RDF>
 </metadata>
 <defs>
  <style type="text/css">*{stroke-linejoin: round; stroke-linecap: butt}</style>
 </defs>
 <g id="figure_1">
  <g id="patch_1">
   <path d="M 0 279.755504 
L 424.433125 279.755504 
L 424.433125 0 
L 0 0 
z
" style="fill: #ffffff"/>
  </g>
  <g id="axes_1">
   <g id="patch_2">
    <path d="M 40.603125 242.199254 
L 417.233125 242.199254 
L 417.233125 9.323889 
L 40.603125 9.323889 
z
" style="fill: #ffffff"/>
   </g>
   <g id="PolyCollection_1">
    <path d="M 57.72267 250.969011 
L 57.72267 155.30504 
L 58.580793 196.691554 
L 59.438916 151.856383 
L 60.297038 173.443688 
L 61.155161 135.665904 
L 62.013283 187.181064 
L 62.871406 187.181064 
L 63.729529 112.999234 
L 64.587651 180.999244 
L 65.445774 180.999244 
L 66.303896 180.999244 
L 67.162019 196.691554 
L 68.020141 151.856383 
L 68.878264 151.856383 
L 69.736387 163.999242 
L 70.594509 22.332554 
L 71.452632 135.665904 
L 72.310754 151.856383 
L 73.168877 215.481953 
L 74.026999 197.924033 
L 74.885122 156.024363 
L 75.743245 187.181064 
L 76.601367 200.427819 
L 77.45949 194.693157 
L 78.317612 135.665904 
L 79.175735 156.467835 
L 80.033858 192.332579 
L 80.89198 200.427819 
L 81.750103 180.999244 
L 82.608225 203.665915 
L 83.466348 112.999234 
L 84.32447 135.665904 
L 85.182593 135.665904 
L 86.040716 163.999242 
L 86.898838 213.668833 
L 87.756961 112.999234 
L 88.615083 163.999242 
L 89.473206 78.999229 
L 90.331328 78.999229 
L 91.189451 180.999244 
L 92.047574 185.690278 
L 92.905696 180.999244 
L 93.763819 173.443688 
L 94.621941 135.665904 
L 95.480064 180.999244 
L 96.338187 180.999244 
L 97.196309 196.691554 
L 98.054432 151.856383 
L 98.912554 201.993849 
L 99.770677 180.999244 
L 100.628799 112.999234 
L 101.486922 163.999242 
L 102.345045 135.665904 
L 103.203167 217.120427 
L 104.06129 180.999244 
L 104.919412 151.856383 
L 105.777535 135.665904 
L 106.635657 203.665915 
L 107.49378 208.999249 
L 108.351903 213.261222 
L 109.210025 180.999244 
L 110.068148 203.665915 
L 110.92627 192.332579 
L 111.784393 212.300807 
L 112.642516 173.443688 
L 113.500638 112.999234 
L 114.358761 112.999234 
L 115.216883 151.856383 
L 116.075006 196.691554 
L 116.933128 192.94929 
L 117.791251 78.999229 
L 118.649374 180.999244 
L 119.507496 163.999242 
L 120.365619 135.665904 
L 121.223741 151.856383 
L 122.081864 196.691554 
L 122.939986 215.970175 
L 123.798109 202.946341 
L 124.656232 196.691554 
L 125.514354 196.691554 
L 126.372477 187.181064 
L 127.230599 186.584091 
L 128.088722 173.443688 
L 128.946845 203.665915 
L 129.804967 199.878031 
L 130.66309 179.268744 
L 131.521212 187.181064 
L 132.379335 222.841153 
L 133.237457 188.787652 
L 134.09558 180.999244 
L 134.953703 204.935786 
L 135.811825 221.416503 
L 136.669948 187.181064 
L 137.52807 192.332579 
L 138.386193 180.493925 
L 139.244315 200.427819 
L 140.102438 180.999244 
L 140.960561 204.621131 
L 141.818683 199.174844 
L 142.676806 208.260668 
L 143.534928 163.999242 
L 144.393051 192.332579 
L 145.251174 219.07925 
L 146.109296 199.95392 
L 146.967419 215.481953 
L 147.825541 201.500844 
L 148.683664 163.999242 
L 149.541786 196.691554 
L 150.399909 213.251356 
L 151.258032 187.181064 
L 152.116154 180.999244 
L 152.974277 213.793819 
L 153.832399 180.999244 
L 154.690522 207.859948 
L 155.548644 163.999242 
L 156.406767 173.443688 
L 157.26489 192.94929 
L 158.123012 210.866042 
L 158.981135 187.181064 
L 159.839257 200.427819 
L 160.69738 208.999249 
L 161.555503 163.999242 
L 162.413625 180.999244 
L 163.271748 204.621131 
L 164.12987 192.94929 
L 164.987993 172.491149 
L 165.846115 218.692672 
L 166.704238 192.332579 
L 167.562361 214.894634 
L 168.420483 163.999242 
L 169.278606 173.443688 
L 170.136728 212.411628 
L 170.994851 217.270259 
L 171.852973 214.894634 
L 172.711096 180.999244 
L 173.569219 187.181064 
L 174.427341 214.894634 
L 175.285464 222.519961 
L 176.143586 178.834794 
L 177.001709 215.432757 
L 177.859832 200.39887 
L 178.717954 214.763655 
L 179.576077 219.670053 
L 180.434199 208.584199 
L 181.292322 195.238329 
L 182.150444 173.443688 
L 183.008567 187.80534 
L 183.86669 212.060633 
L 184.724812 173.443688 
L 185.582935 228.847572 
L 186.441057 200.39887 
L 187.29918 173.443688 
L 188.157302 151.856383 
L 189.015425 206.366442 
L 189.873548 163.999242 
L 190.73167 219.07925 
L 191.589793 198.509112 
L 192.447915 180.999244 
L 193.306038 180.999244 
L 194.164161 180.999244 
L 195.022283 180.371427 
L 195.880406 130.731564 
L 196.738528 204.096977 
L 197.596651 187.566301 
L 198.454773 207.579047 
L 199.312896 135.665904 
L 200.171019 173.443688 
L 201.029141 192.332579 
L 201.887264 187.181064 
L 202.745386 206.439791 
L 203.603509 173.443688 
L 204.461631 211.790208 
L 205.319754 211.402697 
L 206.177877 151.856383 
L 207.035999 219.474067 
L 207.894122 207.279286 
L 208.752244 203.665915 
L 209.610367 214.309252 
L 210.46849 224.430488 
L 211.326612 155.960108 
L 212.184735 192.887826 
L 213.042857 179.220741 
L 213.90098 173.443688 
L 214.759102 196.691554 
L 215.617225 187.181064 
L 216.475348 211.190017 
L 217.33347 200.238175 
L 218.191593 180.999244 
L 219.049715 197.55379 
L 219.907838 208.999249 
L 220.76596 173.443688 
L 221.624083 192.332579 
L 222.482206 200.945914 
L 223.340328 225.198653 
L 224.198451 173.443688 
L 225.056573 217.126694 
L 225.914696 210.74903 
L 226.772819 208.584199 
L 227.630941 135.665904 
L 228.489064 217.136393 
L 229.347186 221.982744 
L 230.205309 187.181064 
L 231.063431 112.999234 
L 231.921554 151.856383 
L 232.779677 187.181064 
L 233.637799 200.427819 
L 234.495922 211.221471 
L 235.354044 102.986725 
L 236.212167 151.856383 
L 237.07029 194.03258 
L 237.928412 151.856383 
L 238.786535 208.999249 
L 239.644657 218.934173 
L 240.50278 230.955888 
L 241.360902 218.175614 
L 242.219025 197.204607 
L 243.077148 169.299777 
L 243.93527 208.999249 
L 244.793393 186.869047 
L 245.651515 192.332579 
L 246.509638 180.999244 
L 247.36776 192.332579 
L 248.225883 208.485317 
L 249.084006 224.917615 
L 249.942128 205.577485 
L 250.800251 169.496926 
L 251.658373 180.999244 
L 252.516496 219.990804 
L 253.374619 208.584199 
L 254.232741 212.040853 
L 255.090864 112.999234 
L 255.948986 200.427819 
L 256.807109 220.380117 
L 257.665231 112.999234 
L 258.523354 217.126424 
L 259.381477 180.999244 
L 260.239599 217.815697 
L 261.097722 180.999244 
L 261.955844 217.136393 
L 262.813967 222.356902 
L 263.672089 220.717923 
L 264.530212 208.999249 
L 265.388335 173.443688 
L 266.246457 156.281017 
L 267.10458 202.069653 
L 267.962702 135.665904 
L 268.820825 192.712876 
L 269.678948 180.493925 
L 270.53707 187.181064 
L 271.395193 200.427819 
L 272.253315 200.427819 
L 273.111438 200.427819 
L 273.96956 163.999242 
L 274.827683 203.665915 
L 275.685806 139.100589 
L 276.543928 197.19943 
L 277.402051 212.040853 
L 278.260173 195.279247 
L 279.118296 169.435623 
L 279.976418 213.668833 
L 280.834541 163.999242 
L 281.692664 227.618667 
L 282.550786 200.427819 
L 283.408909 200.47371 
L 284.267031 223.163221 
L 285.125154 163.999242 
L 285.983277 217.136393 
L 286.841399 196.777799 
L 287.699522 236.323358 
L 288.557644 224.027951 
L 289.415767 192.980095 
L 290.273889 196.22592 
L 291.132012 151.856383 
L 291.990135 78.999229 
L 292.848257 209.130576 
L 293.70638 217.272402 
L 294.564502 192.332579 
L 295.422625 200.427819 
L 296.280747 230.407532 
L 297.13887 220.986928 
L 297.996993 197.924033 
L 298.855115 168.918976 
L 299.713238 187.181064 
L 300.57136 200.39887 
L 301.429483 151.856383 
L 302.287606 163.999242 
L 303.145728 213.07817 
L 304.003851 214.357516 
L 304.861973 210.805947 
L 305.720096 192.332579 
L 306.578218 196.691554 
L 307.436341 223.210631 
L 308.294464 203.665915 
L 309.152586 220.936649 
L 310.010709 163.999242 
L 310.868831 187.181064 
L 311.726954 202.069653 
L 312.585076 206.499248 
L 313.443199 219.041851 
L 314.301322 188.27787 
L 315.159444 179.268744 
L 316.017567 205.478939 
L 316.875689 135.665904 
L 317.733812 187.181064 
L 318.591935 180.999244 
L 319.450057 200.077616 
L 320.30818 217.122207 
L 321.166302 217.270259 
L 322.024425 220.299255 
L 322.882547 165.125217 
L 323.74067 196.691554 
L 324.598793 216.021426 
L 325.456915 173.443688 
L 326.315038 179.155171 
L 327.17316 178.043487 
L 328.031283 179.268744 
L 328.889405 220.56488 
L 329.747528 192.956965 
L 330.605651 221.265883 
L 331.463773 224.183618 
L 332.321896 211.190017 
L 333.180018 214.592475 
L 334.038141 225.49068 
L 334.896264 223.210631 
L 335.754386 196.153532 
L 336.612509 173.443688 
L 337.470631 180.705592 
L 338.328754 215.481953 
L 339.186876 227.06482 
L 340.044999 193.082149 
L 340.903122 205.479248 
L 341.761244 231.648317 
L 342.619367 211.754971 
L 343.477489 200.546821 
L 344.335612 218.534141 
L 345.193734 169.496926 
L 346.051857 192.332579 
L 346.90998 206.499248 
L 347.768102 205.577485 
L 348.626225 205.116306 
L 349.484347 78.999229 
L 350.34247 213.470108 
L 351.200593 169.496926 
L 352.058715 197.924033 
L 352.916838 200.39887 
L 353.77496 209.786884 
L 354.633083 156.467835 
L 355.491205 180.999244 
L 356.349328 197.269397 
L 357.207451 215.880494 
L 358.065573 206.562029 
L 358.923696 112.999234 
L 359.781818 210.207824 
L 360.639941 186.869047 
L 361.498063 196.691554 
L 362.356186 204.130401 
L 363.214309 151.856383 
L 364.072431 224.427433 
L 364.930554 179.217055 
L 365.788676 205.479248 
L 366.646799 213.405241 
L 367.504922 182.965021 
L 368.363044 172.12752 
L 369.221167 212.331891 
L 370.079289 187.181064 
L 370.937412 187.181064 
L 371.795534 210.429234 
L 372.653657 223.718237 
L 373.51178 209.18834 
L 374.369902 196.992799 
L 375.228025 226.676363 
L 376.086147 224.638882 
L 376.94427 205.507806 
L 377.802392 187.73973 
L 378.660515 200.653544 
L 379.518638 198.33074 
L 380.37676 200.53838 
L 381.234883 196.691554 
L 382.093005 211.190017 
L 382.951128 200.39887 
L 383.809251 219.523229 
L 384.667373 220.309606 
L 385.525496 193.082634 
L 386.383618 203.665915 
L 387.241741 215.261424 
L 388.099863 197.974784 
L 388.957986 217.136393 
L 389.816109 200.39887 
L 390.674231 225.880281 
L 391.532354 180.999244 
L 392.390476 203.665915 
L 393.248599 208.94553 
L 394.106721 216.892965 
L 394.964844 217.410036 
L 395.822967 196.691554 
L 396.681089 222.279251 
L 397.539212 195.573112 
L 398.397334 215.087156 
L 399.255457 208.258963 
L 400.11358 234.273569 
L 400.11358 243.96716 
L 400.11358 243.96716 
L 399.255457 256.300811 
L 398.397334 253.591868 
L 397.539212 241.9466 
L 396.681089 248.839255 
L 395.822967 242.199254 
L 394.964844 256.38047 
L 394.106721 253.036123 
L 393.248599 254.228732 
L 392.390476 208.999249 
L 391.532354 242.199254 
L 390.674231 249.438679 
L 389.816109 253.399633 
L 388.957986 250.553541 
L 388.099863 251.256042 
L 387.241741 252.363747 
L 386.383618 242.199254 
L 385.525496 259.841583 
L 384.667373 248.454711 
L 383.809251 248.275276 
L 382.951128 253.399633 
L 382.093005 247.519598 
L 381.234883 242.199254 
L 380.37676 254.830628 
L 379.518638 242.677285 
L 378.660515 255.154736 
L 377.802392 253.141677 
L 376.94427 252.030697 
L 376.086147 250.12629 
L 375.228025 249.713254 
L 374.369902 260.197402 
L 373.51178 253.202892 
L 372.653657 250.053617 
L 371.795534 250.133209 
L 370.937412 187.181064 
L 370.079289 220.753097 
L 369.221167 255.085693 
L 368.363044 274.190982 
L 367.504922 251.566813 
L 366.646799 248.974215 
L 365.788676 254.439256 
L 364.930554 252.699393 
L 364.072431 249.468605 
L 363.214309 200.427819 
L 362.356186 250.719011 
L 361.498063 200.427819 
L 360.639941 251.692416 
L 359.781818 247.688115 
L 358.923696 187.181064 
L 358.065573 258.286475 
L 357.207451 249.251344 
L 356.349328 252.797823 
L 355.491205 211.221471 
L 354.633083 256.90844 
L 353.77496 247.760337 
L 352.916838 253.399633 
L 352.058715 249.795681 
L 351.200593 254.673001 
L 350.34247 247.128396 
L 349.484347 135.665904 
L 348.626225 256.363679 
L 347.768102 248.482556 
L 346.90998 206.499248 
L 346.051857 242.199254 
L 345.193734 254.673001 
L 344.335612 255.137137 
L 343.477489 254.816369 
L 342.619367 256.290775 
L 341.761244 248.176337 
L 340.903122 254.439256 
L 340.044999 248.400796 
L 339.186876 250.088448 
L 338.328754 246.783218 
L 337.470631 265.046243 
L 336.612509 200.427819 
L 335.754386 257.547827 
L 334.896264 250.178351 
L 334.038141 250.553541 
L 333.180018 252.673562 
L 332.321896 247.519598 
L 331.463773 251.687413 
L 330.605651 251.189032 
L 329.747528 259.546299 
L 328.889405 248.776482 
L 328.031283 252.996422 
L 327.17316 262.835013 
L 326.315038 252.35444 
L 325.456915 237.34211 
L 324.598793 252.072533 
L 323.74067 242.199254 
L 322.882547 252.406614 
L 322.024425 245.965916 
L 321.166302 246.476393 
L 320.30818 246.592964 
L 319.450057 253.928664 
L 318.591935 241.581072 
L 317.733812 200.427819 
L 316.875689 242.199254 
L 316.017567 247.933483 
L 315.159444 252.996422 
L 314.301322 254.834917 
L 313.443199 254.229382 
L 312.585076 242.199254 
L 311.726954 249.084405 
L 310.868831 242.199254 
L 310.010709 242.199254 
L 309.152586 252.229264 
L 308.294464 242.199254 
L 307.436341 250.178351 
L 306.578218 203.665915 
L 305.720096 242.199254 
L 304.861973 256.21478 
L 304.003851 247.122469 
L 303.145728 245.253666 
L 302.287606 239.060792 
L 301.429483 242.199254 
L 300.57136 253.399633 
L 299.713238 242.199254 
L 298.855115 259.94619 
L 297.996993 249.795681 
L 297.13887 252.330096 
L 296.280747 248.168441 
L 295.422625 242.199254 
L 294.564502 223.074251 
L 293.70638 255.16314 
L 292.848257 253.033989 
L 291.990135 135.665904 
L 291.132012 208.999249 
L 290.273889 250.017026 
L 289.415767 259.614425 
L 288.557644 250.080608 
L 287.699522 244.199398 
L 286.841399 257.008711 
L 285.983277 250.553541 
L 285.125154 240.499253 
L 284.267031 250.792428 
L 283.408909 259.682669 
L 282.550786 242.199254 
L 281.692664 249.773779 
L 280.834541 242.199254 
L 279.976418 249.843957 
L 279.118296 261.69621 
L 278.260173 257.839256 
L 277.402051 254.871937 
L 276.543928 246.440283 
L 275.685806 282.505846 
L 274.827683 242.199254 
L 273.96956 180.999244 
L 273.111438 240.38592 
L 272.253315 242.199254 
L 271.395193 206.499248 
L 270.53707 242.199254 
L 269.678948 258.733147 
L 268.820825 249.374514 
L 267.962702 215.84925 
L 267.10458 249.084405 
L 266.246457 255.858894 
L 265.388335 187.181064 
L 264.530212 242.199254 
L 263.672089 250.404392 
L 262.813967 252.730241 
L 261.955844 250.553541 
L 261.097722 192.332579 
L 260.239599 248.732808 
L 259.381477 187.181064 
L 258.523354 253.517536 
L 257.665231 180.999244 
L 256.807109 251.35024 
L 255.948986 208.999249 
L 255.090864 173.443688 
L 254.232741 254.871937 
L 253.374619 247.966685 
L 252.516496 248.268465 
L 251.658373 187.181064 
L 250.800251 254.673001 
L 249.942128 248.482556 
L 249.084006 251.029236 
L 248.225883 247.417948 
L 247.36776 196.691554 
L 246.509638 187.181064 
L 245.651515 208.999249 
L 244.793393 251.692416 
L 243.93527 242.199254 
L 243.077148 253.574912 
L 242.219025 233.538 
L 241.360902 252.485518 
L 240.50278 247.946904 
L 239.644657 249.506999 
L 238.786535 242.199254 
L 237.928412 196.691554 
L 237.07029 203.665915 
L 236.212167 242.199254 
L 235.354044 239.642063 
L 234.495922 242.199254 
L 233.637799 242.199254 
L 232.779677 203.665915 
L 231.921554 242.199254 
L 231.063431 203.665915 
L 230.205309 192.332579 
L 229.347186 248.437984 
L 228.489064 250.553541 
L 227.630941 229.354807 
L 226.772819 247.966685 
L 225.914696 249.350173 
L 225.056573 245.713292 
L 224.198451 242.199254 
L 223.340328 250.11326 
L 222.482206 255.950367 
L 221.624083 242.199254 
L 220.76596 242.199254 
L 219.907838 242.199254 
L 219.049715 247.899257 
L 218.191593 242.199254 
L 217.33347 252.831756 
L 216.475348 247.519598 
L 215.617225 242.199254 
L 214.759102 203.665915 
L 213.90098 187.181064 
L 213.042857 235.378814 
L 212.184735 250.298554 
L 211.326612 254.216166 
L 210.46849 250.685479 
L 209.610367 254.789253 
L 208.752244 241.821476 
L 207.894122 245.790646 
L 207.035999 252.457772 
L 206.177877 242.199254 
L 205.319754 245.493584 
L 204.461631 254.345439 
L 203.603509 206.499248 
L 202.745386 258.030936 
L 201.887264 242.199254 
L 201.029141 242.199254 
L 200.171019 241.06592 
L 199.312896 196.691554 
L 198.454773 249.619457 
L 197.596651 253.024508 
L 196.738528 238.206285 
L 195.880406 272.066931 
L 195.022283 258.288978 
L 194.164161 192.332579 
L 193.306038 242.199254 
L 192.447915 242.199254 
L 191.589793 252.668557 
L 190.73167 249.905921 
L 189.873548 242.199254 
L 189.015425 253.02163 
L 188.157302 200.427819 
L 187.29918 192.332579 
L 186.441057 253.399633 
L 185.582935 249.309778 
L 184.724812 200.427819 
L 183.86669 239.074536 
L 183.008567 259.730686 
L 182.150444 242.199254 
L 181.292322 254.782396 
L 180.434199 247.966685 
L 179.576077 250.804643 
L 178.717954 252.94394 
L 177.859832 253.399633 
L 177.001709 249.802111 
L 176.143586 250.483705 
L 175.285464 251.088242 
L 174.427341 251.300793 
L 173.569219 192.332579 
L 172.711096 242.199254 
L 171.852973 251.300793 
L 170.994851 246.476393 
L 170.136728 255.312993 
L 169.278606 192.332579 
L 168.420483 242.199254 
L 167.562361 251.300793 
L 166.704238 242.199254 
L 165.846115 253.177349 
L 164.987993 236.459728 
L 164.12987 250.649212 
L 163.271748 252.268281 
L 162.413625 196.691554 
L 161.555503 180.999244 
L 160.69738 242.199254 
L 159.839257 237.949253 
L 158.981135 242.199254 
L 158.123012 256.343574 
L 157.26489 250.649212 
L 156.406767 242.199254 
L 155.548644 242.199254 
L 154.690522 250.390936 
L 153.832399 192.332579 
L 152.974277 253.913777 
L 152.116154 242.199254 
L 151.258032 242.199254 
L 150.399909 249.802704 
L 149.541786 200.427819 
L 148.683664 200.427819 
L 147.825541 255.456274 
L 146.967419 246.783218 
L 146.109296 251.955694 
L 145.251174 249.905921 
L 144.393051 208.999249 
L 143.534928 196.691554 
L 142.676806 250.839934 
L 141.818683 252.134684 
L 140.960561 252.268281 
L 140.102438 242.199254 
L 139.244315 242.199254 
L 138.386193 258.733147 
L 137.52807 242.199254 
L 136.669948 208.999249 
L 135.811825 250.137558 
L 134.953703 252.343987 
L 134.09558 242.199254 
L 133.237457 256.510849 
L 132.379335 251.444533 
L 131.521212 200.427819 
L 130.66309 252.996422 
L 129.804967 257.950102 
L 128.946845 208.999249 
L 128.088722 211.221471 
L 127.230599 250.164039 
L 126.372477 242.199254 
L 125.514354 203.665915 
L 124.656232 242.199254 
L 123.798109 248.276403 
L 122.939986 245.045472 
L 122.081864 242.199254 
L 121.223741 187.181064 
L 120.365619 242.199254 
L 119.507496 187.181064 
L 118.649374 242.199254 
L 117.791251 187.181064 
L 116.933128 250.649212 
L 116.075006 242.199254 
L 115.216883 200.427819 
L 114.358761 234.643697 
L 113.500638 208.999249 
L 112.642516 187.181064 
L 111.784393 245.516982 
L 110.92627 242.199254 
L 110.068148 203.665915 
L 109.210025 192.332579 
L 108.351903 246.042044 
L 107.49378 239.479253 
L 106.635657 225.199251 
L 105.777535 192.332579 
L 104.919412 151.856383 
L 104.06129 192.332579 
L 103.203167 250.508847 
L 102.345045 203.665915 
L 101.486922 173.443688 
L 100.628799 151.856383 
L 99.770677 180.999244 
L 98.912554 248.656506 
L 98.054432 187.181064 
L 97.196309 242.199254 
L 96.338187 206.499248 
L 95.480064 192.332579 
L 94.621941 151.856383 
L 93.763819 196.691554 
L 92.905696 200.427819 
L 92.047574 246.524517 
L 91.189451 242.199254 
L 90.331328 242.199254 
L 89.473206 192.332579 
L 88.615083 203.665915 
L 87.756961 242.199254 
L 86.898838 249.843957 
L 86.040716 196.691554 
L 85.182593 242.199254 
L 84.32447 206.499248 
L 83.466348 192.332579 
L 82.608225 242.199254 
L 81.750103 242.199254 
L 80.89198 206.499248 
L 80.033858 200.427819 
L 79.175735 256.90844 
L 78.317612 187.181064 
L 77.45949 252.834234 
L 76.601367 242.199254 
L 75.743245 192.332579 
L 74.885122 254.387808 
L 74.026999 249.795681 
L 73.168877 246.783218 
L 72.310754 200.427819 
L 71.452632 173.443688 
L 70.594509 200.427819 
L 69.736387 192.332579 
L 68.878264 203.665915 
L 68.020141 187.181064 
L 67.162019 196.691554 
L 66.303896 200.427819 
L 65.445774 192.332579 
L 64.587651 200.427819 
L 63.729529 180.999244 
L 62.871406 192.332579 
L 62.013283 208.999249 
L 61.155161 200.427819 
L 60.297038 173.443688 
L 59.438916 173.443688 
L 58.580793 208.999249 
L 57.72267 250.969011 
z
" clip-path="url(#p5c522f4a88)" style="fill: #1f77b4; fill-opacity: 0.3"/>
   </g>
   <g id="PolyCollection_2">
    <path d="M 57.72267 245.64908 
L 57.72267 215.730164 
L 58.580793 222.290671 
L 59.438916 230.370552 
L 60.297038 217.464685 
L 61.155161 227.765094 
L 62.013283 151.748241 
L 62.871406 223.089892 
L 63.729529 218.826971 
L 64.587651 171.375927 
L 65.445774 151.856383 
L 66.303896 179.216764 
L 67.162019 186.100143 
L 68.020141 188.583264 
L 68.878264 227.837485 
L 69.736387 209.562782 
L 70.594509 204.436724 
L 71.452632 222.088008 
L 72.310754 183.571336 
L 73.168877 206.749392 
L 74.026999 213.479896 
L 74.885122 214.881412 
L 75.743245 199.308933 
L 76.601367 183.173983 
L 77.45949 200.293243 
L 78.317612 217.492526 
L 79.175735 210.421881 
L 80.033858 187.181064 
L 80.89198 205.279342 
L 81.750103 235.574765 
L 82.608225 216.036091 
L 83.466348 162.923628 
L 84.32447 161.972769 
L 85.182593 232.371817 
L 86.040716 210.99767 
L 86.898838 234.027021 
L 87.756961 229.809422 
L 88.615083 232.112008 
L 89.473206 169.328226 
L 90.331328 235.102845 
L 91.189451 218.216144 
L 92.047574 207.126019 
L 92.905696 199.412206 
L 93.763819 233.181578 
L 94.621941 187.156121 
L 95.480064 224.430505 
L 96.338187 219.231315 
L 97.196309 239.823597 
L 98.054432 218.909283 
L 98.912554 210.273914 
L 99.770677 207.137058 
L 100.628799 192.690835 
L 101.486922 192.632408 
L 102.345045 181.27734 
L 103.203167 215.04209 
L 104.06129 197.992248 
L 104.919412 232.573054 
L 105.777535 229.236996 
L 106.635657 214.721779 
L 107.49378 188.777156 
L 108.351903 127.874384 
L 109.210025 222.171773 
L 110.068148 231.901133 
L 110.92627 222.701854 
L 111.784393 222.445206 
L 112.642516 236.991547 
L 113.500638 239.714757 
L 114.358761 204.773914 
L 115.216883 233.544851 
L 116.075006 191.638802 
L 116.933128 218.837327 
L 117.791251 219.763075 
L 118.649374 187.352876 
L 119.507496 210.48751 
L 120.365619 195.306723 
L 121.223741 216.646321 
L 122.081864 151.856383 
L 122.939986 153.343613 
L 123.798109 225.267209 
L 124.656232 225.9221 
L 125.514354 222.289527 
L 126.372477 175.043608 
L 127.230599 222.724031 
L 128.088722 207.043734 
L 128.946845 219.351999 
L 129.804967 233.286816 
L 130.66309 215.364348 
L 131.521212 213.956493 
L 132.379335 229.054958 
L 133.237457 180.999244 
L 134.09558 224.921599 
L 134.953703 224.14948 
L 135.811825 211.682113 
L 136.669948 203.310043 
L 137.52807 237.827922 
L 138.386193 233.650054 
L 139.244315 214.227594 
L 140.102438 172.161456 
L 140.960561 222.240778 
L 141.818683 239.344269 
L 142.676806 195.993988 
L 143.534928 211.396929 
L 144.393051 225.650135 
L 145.251174 215.39481 
L 146.109296 220.494263 
L 146.967419 226.619176 
L 147.825541 232.651364 
L 148.683664 228.712109 
L 149.541786 237.928458 
L 150.399909 237.548104 
L 151.258032 239.700085 
L 152.116154 237.248721 
L 152.974277 237.505188 
L 153.832399 225.998825 
L 154.690522 220.725652 
L 155.548644 235.601617 
L 156.406767 197.880125 
L 157.26489 186.633963 
L 158.123012 221.315426 
L 158.981135 231.206456 
L 159.839257 222.421371 
L 160.69738 195.279247 
L 161.555503 235.693388 
L 162.413625 212.964639 
L 163.271748 224.030513 
L 164.12987 207.352389 
L 164.987993 218.064068 
L 165.846115 236.611863 
L 166.704238 211.111125 
L 167.562361 212.258236 
L 168.420483 221.883697 
L 169.278606 200.692479 
L 170.136728 231.85253 
L 170.994851 179.020787 
L 171.852973 224.155956 
L 172.711096 225.824954 
L 173.569219 225.031858 
L 174.427341 234.36851 
L 175.285464 214.092424 
L 176.143586 207.306833 
L 177.001709 233.07634 
L 177.859832 195.4379 
L 178.717954 213.342276 
L 179.576077 112.999234 
L 180.434199 237.705802 
L 181.292322 239.949872 
L 182.150444 239.879527 
L 183.008567 240.654065 
L 183.86669 237.02909 
L 184.724812 188.91688 
L 185.582935 215.366614 
L 186.441057 216.959692 
L 187.29918 216.761821 
L 188.157302 226.104557 
L 189.015425 193.044087 
L 189.873548 227.225768 
L 190.73167 217.003957 
L 191.589793 192.727992 
L 192.447915 215.368687 
L 193.306038 235.503466 
L 194.164161 220.803987 
L 195.022283 212.12511 
L 195.880406 239.559043 
L 196.738528 208.928789 
L 197.596651 236.988598 
L 198.454773 140.322351 
L 199.312896 212.159177 
L 200.171019 223.695989 
L 201.029141 222.864334 
L 201.887264 217.589541 
L 202.745386 208.283881 
L 203.603509 230.751597 
L 204.461631 216.735457 
L 205.319754 206.49248 
L 206.177877 146.973664 
L 207.035999 232.740953 
L 207.894122 213.939168 
L 208.752244 205.156005 
L 209.610367 210.243011 
L 210.46849 209.837294 
L 211.326612 214.186786 
L 212.184735 204.515902 
L 213.042857 212.997074 
L 213.90098 226.478718 
L 214.759102 236.360861 
L 215.617225 205.360064 
L 216.475348 234.058668 
L 217.33347 238.828853 
L 218.191593 234.847575 
L 219.049715 217.121082 
L 219.907838 211.690653 
L 220.76596 201.412851 
L 221.624083 233.812019 
L 222.482206 185.192918 
L 223.340328 187.12483 
L 224.198451 207.651104 
L 225.056573 182.222844 
L 225.914696 207.132215 
L 226.772819 222.149973 
L 227.630941 200.225138 
L 228.489064 219.392433 
L 229.347186 137.131095 
L 230.205309 179.131748 
L 231.063431 226.672576 
L 231.921554 217.53901 
L 232.779677 199.592574 
L 233.637799 219.408322 
L 234.495922 228.629245 
L 235.354044 209.73308 
L 236.212167 210.579544 
L 237.07029 199.102629 
L 237.928412 214.728983 
L 238.786535 206.033906 
L 239.644657 169.231989 
L 240.50278 237.043457 
L 241.360902 173.443688 
L 242.219025 220.321301 
L 243.077148 216.57942 
L 243.93527 178.918949 
L 244.793393 223.704051 
L 245.651515 220.428579 
L 246.509638 217.950353 
L 247.36776 230.516676 
L 248.225883 222.638216 
L 249.084006 223.090014 
L 249.942128 213.581853 
L 250.800251 233.536561 
L 251.658373 153.165432 
L 252.516496 186.738772 
L 253.374619 217.573077 
L 254.232741 233.878852 
L 255.090864 238.389697 
L 255.948986 221.731992 
L 256.807109 150.12251 
L 257.665231 237.481469 
L 258.523354 236.884102 
L 259.381477 207.917553 
L 260.239599 235.316506 
L 261.097722 198.474703 
L 261.955844 229.307676 
L 262.813967 207.47549 
L 263.672089 213.866156 
L 264.530212 220.939888 
L 265.388335 229.044865 
L 266.246457 208.299159 
L 267.10458 220.89257 
L 267.962702 237.952711 
L 268.820825 211.887267 
L 269.678948 197.975252 
L 270.53707 229.724934 
L 271.395193 228.841018 
L 272.253315 239.325779 
L 273.111438 204.352098 
L 273.96956 219.611458 
L 274.827683 210.866003 
L 275.685806 239.708431 
L 276.543928 203.189926 
L 277.402051 220.644515 
L 278.260173 218.550636 
L 279.118296 217.99484 
L 279.976418 222.446311 
L 280.834541 218.255674 
L 281.692664 220.078961 
L 282.550786 218.563739 
L 283.408909 192.332579 
L 284.267031 231.050005 
L 285.125154 208.999249 
L 285.983277 210.333775 
L 286.841399 179.970425 
L 287.699522 186.218901 
L 288.557644 235.391792 
L 289.415767 234.561746 
L 290.273889 221.074433 
L 291.132012 236.213933 
L 291.990135 216.628233 
L 292.848257 218.607598 
L 293.70638 222.20014 
L 294.564502 78.999229 
L 295.422625 223.862798 
L 296.280747 223.086778 
L 297.13887 215.314132 
L 297.996993 207.785477 
L 298.855115 223.246552 
L 299.713238 188.787652 
L 300.57136 210.058701 
L 301.429483 239.326694 
L 302.287606 220.015186 
L 303.145728 234.92238 
L 304.003851 215.408031 
L 304.861973 231.878052 
L 305.720096 237.448186 
L 306.578218 221.517746 
L 307.436341 231.561407 
L 308.294464 212.323318 
L 309.152586 210.189492 
L 310.010709 218.660757 
L 310.868831 229.336409 
L 311.726954 231.680031 
L 312.585076 194.558229 
L 313.443199 237.346584 
L 314.301322 104.275221 
L 315.159444 227.163855 
L 316.017567 237.504543 
L 316.875689 181.957598 
L 317.733812 216.790922 
L 318.591935 239.578786 
L 319.450057 192.063098 
L 320.30818 228.342665 
L 321.166302 235.766817 
L 322.024425 198.431969 
L 322.882547 219.021375 
L 323.74067 235.566569 
L 324.598793 178.279244 
L 325.456915 205.133318 
L 326.315038 231.981191 
L 327.17316 231.111805 
L 328.031283 205.957342 
L 328.889405 215.110701 
L 329.747528 144.632797 
L 330.605651 178.910095 
L 331.463773 227.484895 
L 332.321896 221.43423 
L 333.180018 220.663721 
L 334.038141 237.7205 
L 334.896264 6.206395 
L 335.754386 235.811372 
L 336.612509 202.842256 
L 337.470631 233.979495 
L 338.328754 233.530091 
L 339.186876 219.83371 
L 340.044999 194.507931 
L 340.903122 216.321729 
L 341.761244 237.705953 
L 342.619367 218.446148 
L 343.477489 206.499248 
L 344.335612 216.70054 
L 345.193734 195.345776 
L 346.051857 209.240833 
L 346.90998 232.944182 
L 347.768102 178.758019 
L 348.626225 217.943939 
L 349.484347 218.533674 
L 350.34247 161.002909 
L 351.200593 210.288505 
L 352.058715 206.997305 
L 352.916838 172.247631 
L 353.77496 237.76599 
L 354.633083 202.322925 
L 355.491205 232.853164 
L 356.349328 222.458331 
L 357.207451 235.851786 
L 358.065573 230.47133 
L 358.923696 234.774147 
L 359.781818 228.055716 
L 360.639941 230.895906 
L 361.498063 217.705184 
L 362.356186 194.432203 
L 363.214309 155.871938 
L 364.072431 234.344538 
L 364.930554 180.999244 
L 365.788676 213.775034 
L 366.646799 191.690998 
L 367.504922 206.383839 
L 368.363044 225.272263 
L 369.221167 175.43763 
L 370.079289 227.116832 
L 370.937412 207.617269 
L 371.795534 214.152422 
L 372.653657 216.475601 
L 373.51178 232.42255 
L 374.369902 215.38035 
L 375.228025 218.132331 
L 376.086147 196.168244 
L 376.94427 227.442593 
L 377.802392 222.366674 
L 378.660515 203.403592 
L 379.518638 237.35788 
L 380.37676 233.183542 
L 381.234883 194.874414 
L 382.093005 207.764013 
L 382.951128 216.448812 
L 383.809251 210.237495 
L 384.667373 188.382737 
L 385.525496 216.181802 
L 386.383618 220.042781 
L 387.241741 196.407686 
L 388.099863 163.999242 
L 388.957986 222.684396 
L 389.816109 207.837941 
L 390.674231 176.685965 
L 391.532354 237.667119 
L 392.390476 192.86591 
L 393.248599 214.360331 
L 394.106721 221.316972 
L 394.964844 218.657499 
L 395.822967 176.115769 
L 396.681089 217.427065 
L 397.539212 186.446371 
L 398.397334 214.669214 
L 399.255457 224.065808 
L 400.11358 211.221471 
L 400.11358 242.199254 
L 400.11358 242.199254 
L 399.255457 249.39151 
L 398.397334 250.952489 
L 397.539212 266.856823 
L 396.681089 252.076202 
L 395.822967 263.939874 
L 394.964844 247.423392 
L 394.106721 250.1367 
L 393.248599 250.420713 
L 392.390476 252.301822 
L 391.532354 242.050132 
L 390.674231 264.791583 
L 389.816109 253.195008 
L 388.957986 247.512571 
L 388.099863 173.443688 
L 387.241741 262.883586 
L 386.383618 247.216949 
L 385.525496 251.614657 
L 384.667373 255.080844 
L 383.809251 250.098877 
L 382.951128 238.463235 
L 382.093005 256.037299 
L 381.234883 253.559644 
L 380.37676 245.960734 
L 379.518638 243.251848 
L 378.660515 248.215819 
L 377.802392 251.335702 
L 376.94427 245.835631 
L 376.086147 245.616924 
L 375.228025 253.085944 
L 374.369902 254.306409 
L 373.51178 244.776714 
L 372.653657 248.669189 
L 371.795534 245.932647 
L 370.937412 259.248724 
L 370.079289 245.599181 
L 369.221167 272.059833 
L 368.363044 246.99328 
L 367.504922 257.518995 
L 366.646799 257.031167 
L 365.788676 251.025568 
L 364.930554 239.479253 
L 364.072431 245.49565 
L 363.214309 253.795245 
L 362.356186 254.979451 
L 361.498063 249.449218 
L 360.639941 244.43709 
L 359.781818 247.505366 
L 358.923696 243.576409 
L 358.065573 242.993623 
L 357.207451 243.858734 
L 356.349328 246.328508 
L 355.491205 244.432163 
L 354.633083 252.35706 
L 353.77496 242.99238 
L 352.916838 274.334631 
L 352.058715 251.111739 
L 351.200593 255.242698 
L 350.34247 259.203588 
L 349.484347 247.916532 
L 348.626225 250.05255 
L 347.768102 252.396812 
L 346.90998 243.817816 
L 346.051857 258.809297 
L 345.193734 256.730042 
L 344.335612 251.546166 
L 343.477489 237.099253 
L 342.619367 252.729757 
L 341.761244 242.242486 
L 340.903122 244.627568 
L 340.044999 255.73946 
L 339.186876 250.356753 
L 338.328754 241.964352 
L 337.470631 243.064038 
L 336.612509 259.035613 
L 335.754386 244.211209 
L 334.896264 281.639701 
L 334.038141 242.99569 
L 333.180018 245.903182 
L 332.321896 250.791831 
L 331.463773 244.844347 
L 330.605651 251.088404 
L 329.747528 230.713842 
L 328.889405 248.377804 
L 328.031283 257.016025 
L 327.17316 244.662513 
L 326.315038 245.208817 
L 325.456915 258.814456 
L 324.598793 263.505924 
L 323.74067 243.189008 
L 322.882547 251.179653 
L 322.024425 244.521072 
L 321.166302 243.288449 
L 320.30818 243.702296 
L 319.450057 265.718463 
L 318.591935 243.155008 
L 317.733812 249.410846 
L 316.875689 265.98023 
L 316.017567 241.934792 
L 315.159444 247.599285 
L 314.301322 274.836604 
L 313.443199 243.014562 
L 312.585076 255.243539 
L 311.726954 245.003179 
L 310.868831 247.585874 
L 310.010709 251.024653 
L 309.152586 252.795608 
L 308.294464 254.948522 
L 307.436341 244.209443 
L 306.578218 245.884356 
L 305.720096 244.111533 
L 304.861973 242.875346 
L 304.003851 253.325773 
L 303.145728 243.723733 
L 302.287606 253.717151 
L 301.429483 242.886306 
L 300.57136 246.885199 
L 299.713238 256.510849 
L 298.855115 247.431752 
L 297.996993 247.849026 
L 297.13887 238.731643 
L 296.280747 248.182723 
L 295.422625 249.561504 
L 294.564502 241.06592 
L 293.70638 250.250625 
L 292.848257 249.174308 
L 291.990135 249.375619 
L 291.132012 242.415576 
L 290.273889 249.748744 
L 289.415767 243.362205 
L 288.557644 242.941283 
L 287.699522 249.768236 
L 286.841399 256.98998 
L 285.983277 251.640919 
L 285.125154 238.490162 
L 284.267031 245.555915 
L 283.408909 236.759253 
L 282.550786 248.669497 
L 281.692664 251.14693 
L 280.834541 248.71809 
L 279.976418 248.249239 
L 279.118296 245.265886 
L 278.260173 249.228046 
L 277.402051 248.743105 
L 276.543928 248.568577 
L 275.685806 242.741449 
L 274.827683 250.079407 
L 273.96956 250.657177 
L 273.111438 251.59102 
L 272.253315 242.879164 
L 271.395193 247.486263 
L 270.53707 242.550794 
L 269.678948 253.441451 
L 268.820825 252.953607 
L 267.962702 243.66695 
L 267.10458 246.600379 
L 266.246457 255.094901 
L 265.388335 247.127972 
L 264.530212 252.243479 
L 263.672089 253.918712 
L 262.813967 255.386452 
L 261.955844 243.79447 
L 261.097722 256.517848 
L 260.239599 242.419374 
L 259.381477 256.237459 
L 258.523354 241.215816 
L 257.665231 242.505479 
L 256.807109 235.229517 
L 255.948986 245.647543 
L 255.090864 242.929679 
L 254.232741 244.380021 
L 253.374619 244.681837 
L 252.516496 267.422391 
L 251.658373 263.233065 
L 250.800251 246.506571 
L 249.942128 250.46606 
L 249.084006 250.660096 
L 248.225883 244.730814 
L 247.36776 244.407675 
L 246.509638 249.053709 
L 245.651515 242.344846 
L 244.793393 248.396473 
L 243.93527 252.912018 
L 243.077148 252.452342 
L 242.219025 251.674028 
L 241.360902 200.427819 
L 240.50278 242.978831 
L 239.644657 261.673749 
L 238.786535 252.343826 
L 237.928412 249.708014 
L 237.07029 256.169207 
L 236.212167 251.954107 
L 235.354044 254.287748 
L 234.495922 247.083413 
L 233.637799 250.002576 
L 232.779677 257.228151 
L 231.921554 251.6278 
L 231.063431 247.90593 
L 230.205309 252.226751 
L 229.347186 254.585917 
L 228.489064 251.978627 
L 227.630941 259.116579 
L 226.772819 248.877898 
L 225.914696 250.764277 
L 225.056573 257.821111 
L 224.198451 255.525883 
L 223.340328 259.395317 
L 222.482206 226.105578 
L 221.624083 242.95364 
L 220.76596 254.832905 
L 219.907838 243.748484 
L 219.049715 245.539009 
L 218.191593 244.178411 
L 217.33347 242.710563 
L 216.475348 241.370314 
L 215.617225 252.045551 
L 214.759102 242.921868 
L 213.90098 248.116766 
L 213.042857 252.601589 
L 212.184735 243.386775 
L 211.326612 254.527195 
L 210.46849 255.938336 
L 209.610367 258.021062 
L 208.752244 258.606927 
L 207.894122 244.684098 
L 207.035999 244.6866 
L 206.177877 283.531998 
L 205.319754 253.05142 
L 204.461631 246.474436 
L 203.603509 243.807515 
L 202.745386 252.800337 
L 201.887264 251.690143 
L 201.029141 249.337014 
L 200.171019 238.49188 
L 199.312896 254.676351 
L 198.454773 284.229505 
L 197.596651 242.558258 
L 196.738528 254.799396 
L 195.880406 243.166449 
L 195.022283 245.003649 
L 194.164161 246.85303 
L 193.306038 242.531514 
L 192.447915 250.599413 
L 191.589793 249.359397 
L 190.73167 254.709229 
L 189.873548 243.919676 
L 189.015425 253.251557 
L 188.157302 249.111741 
L 187.29918 252.765977 
L 186.441057 254.576625 
L 185.582935 250.455385 
L 184.724812 265.102103 
L 183.86669 243.002509 
L 183.008567 242.35884 
L 182.150444 242.697088 
L 181.292322 241.862396 
L 180.434199 242.747454 
L 179.576077 242.199254 
L 178.717954 248.699359 
L 177.859832 256.521827 
L 177.001709 243.640408 
L 176.143586 248.245638 
L 175.285464 250.057191 
L 174.427341 244.684342 
L 173.569219 249.732942 
L 172.711096 243.061051 
L 171.852973 249.789225 
L 170.994851 210.386383 
L 170.136728 244.615319 
L 169.278606 261.084897 
L 168.420483 247.738808 
L 167.562361 250.855864 
L 166.704238 246.546809 
L 165.846115 241.886582 
L 164.987993 252.133427 
L 164.12987 248.183891 
L 163.271748 249.939527 
L 162.413625 252.280532 
L 161.555503 241.355976 
L 160.69738 257.839256 
L 159.839257 247.249956 
L 158.981135 242.613699 
L 158.123012 251.255729 
L 157.26489 250.340833 
L 156.406767 255.517664 
L 155.548644 241.725142 
L 154.690522 246.701187 
L 153.832399 245.415886 
L 152.974277 242.6665 
L 152.116154 243.671462 
L 151.258032 242.976344 
L 150.399909 242.898847 
L 149.541786 242.778545 
L 148.683664 244.717818 
L 147.825541 245.001992 
L 146.967419 246.567663 
L 146.109296 251.480725 
L 145.251174 254.490288 
L 144.393051 247.771228 
L 143.534928 253.583797 
L 142.676806 251.504587 
L 141.818683 242.300597 
L 140.960561 248.143117 
L 140.102438 267.90654 
L 139.244315 252.361932 
L 138.386193 241.717765 
L 137.52807 243.455371 
L 136.669948 257.583359 
L 135.811825 254.075104 
L 134.953703 248.02448 
L 134.09558 248.273097 
L 133.237457 196.691554 
L 132.379335 247.765092 
L 131.521212 249.044014 
L 130.66309 246.145267 
L 129.804967 243.016106 
L 128.946845 252.757935 
L 128.088722 254.925782 
L 127.230599 251.431678 
L 126.372477 263.919727 
L 125.514354 238.272652 
L 124.656232 248.409078 
L 123.798109 244.246852 
L 122.939986 263.673066 
L 122.081864 239.932587 
L 121.223741 247.123204 
L 120.365619 255.812781 
L 119.507496 255.546702 
L 118.649374 251.505413 
L 117.791251 250.198596 
L 116.933128 249.659521 
L 116.075006 256.806049 
L 115.216883 244.550302 
L 114.358761 249.704589 
L 113.500638 243.077269 
L 112.642516 244.020293 
L 111.784393 248.388537 
L 110.92627 241.107761 
L 110.068148 244.908217 
L 109.210025 246.112538 
L 108.351903 263.590776 
L 107.49378 247.493828 
L 106.635657 251.069739 
L 105.777535 246.015954 
L 104.919412 243.562716 
L 104.06129 247.32892 
L 103.203167 253.487484 
L 102.345045 265.373434 
L 101.486922 262.016095 
L 100.628799 262.439335 
L 99.770677 255.00363 
L 98.912554 247.559754 
L 98.054432 251.350577 
L 97.196309 242.626237 
L 96.338187 252.543116 
L 95.480064 246.358867 
L 94.621941 251.838213 
L 93.763819 243.379243 
L 92.905696 252.860075 
L 92.047574 254.386832 
L 91.189451 250.173598 
L 90.331328 243.969896 
L 89.473206 253.690378 
L 88.615083 243.157629 
L 87.756961 245.324608 
L 86.898838 245.805658 
L 86.040716 248.845278 
L 85.182593 244.778634 
L 84.32447 261.193348 
L 83.466348 263.486563 
L 82.608225 251.589633 
L 81.750103 244.431123 
L 80.89198 255.644995 
L 80.033858 238.799253 
L 79.175735 255.490473 
L 78.317612 251.720704 
L 77.45949 253.019545 
L 76.601367 237.128218 
L 75.743245 249.889569 
L 74.885122 249.003759 
L 74.026999 247.169753 
L 73.168877 250.914068 
L 72.310754 238.699323 
L 71.452632 248.980448 
L 70.594509 254.777079 
L 69.736387 251.099503 
L 68.878264 243.388637 
L 68.020141 249.726347 
L 67.162019 242.500578 
L 66.303896 255.010308 
L 65.445774 163.999242 
L 64.587651 266.002573 
L 63.729529 245.185411 
L 62.871406 245.30495 
L 62.013283 236.096548 
L 61.155161 245.416846 
L 60.297038 243.295076 
L 59.438916 245.391954 
L 58.580793 247.094865 
L 57.72267 245.64908 
z
" clip-path="url(#p5c522f4a88)" style="fill: #ff7f0e; fill-opacity: 0.3"/>
   </g>
   <g id="matplotlib.axis_1">
    <g id="xtick_1">
     <g id="line2d_1">
      <defs>
       <path id="me38ad4722d" d="M 0 0 
L 0 3.5 
" style="stroke: #000000; stroke-width: 0.8"/>
      </defs>
      <g>
       <use xlink:href="#me38ad4722d" x="57.72267" y="242.199254" style="stroke: #000000; stroke-width: 0.8"/>
      </g>
     </g>
     <g id="text_1">
      <text style="font: 10px 'DejaVu Sans', 'Bitstream Vera Sans', 'Computer Modern Sans Serif', 'Lucida Grande', 'Verdana', 'Geneva', 'Lucid', 'Arial', 'Helvetica', 'Avant Garde', sans-serif; text-anchor: middle" x="57.72267" y="256.797691" transform="rotate(-0 57.72267 256.797691)">0</text>
     </g>
    </g>
    <g id="xtick_2">
     <g id="line2d_2">
      <g>
       <use xlink:href="#me38ad4722d" x="100.628799" y="242.199254" style="stroke: #000000; stroke-width: 0.8"/>
      </g>
     </g>
     <g id="text_2">
      <text style="font: 10px 'DejaVu Sans', 'Bitstream Vera Sans', 'Computer Modern Sans Serif', 'Lucida Grande', 'Verdana', 'Geneva', 'Lucid', 'Arial', 'Helvetica', 'Avant Garde', sans-serif; text-anchor: middle" x="100.628799" y="256.797691" transform="rotate(-0 100.628799 256.797691)">50</text>
     </g>
    </g>
    <g id="xtick_3">
     <g id="line2d_3">
      <g>
       <use xlink:href="#me38ad4722d" x="143.534928" y="242.199254" style="stroke: #000000; stroke-width: 0.8"/>
      </g>
     </g>
     <g id="text_3">
      <text style="font: 10px 'DejaVu Sans', 'Bitstream Vera Sans', 'Computer Modern Sans Serif', 'Lucida Grande', 'Verdana', 'Geneva', 'Lucid', 'Arial', 'Helvetica', 'Avant Garde', sans-serif; text-anchor: middle" x="143.534928" y="256.797691" transform="rotate(-0 143.534928 256.797691)">100</text>
     </g>
    </g>
    <g id="xtick_4">
     <g id="line2d_4">
      <g>
       <use xlink:href="#me38ad4722d" x="186.441057" y="242.199254" style="stroke: #000000; stroke-width: 0.8"/>
      </g>
     </g>
     <g id="text_4">
      <text style="font: 10px 'DejaVu Sans', 'Bitstream Vera Sans', 'Computer Modern Sans Serif', 'Lucida Grande', 'Verdana', 'Geneva', 'Lucid', 'Arial', 'Helvetica', 'Avant Garde', sans-serif; text-anchor: middle" x="186.441057" y="256.797691" transform="rotate(-0 186.441057 256.797691)">150</text>
     </g>
    </g>
    <g id="xtick_5">
     <g id="line2d_5">
      <g>
       <use xlink:href="#me38ad4722d" x="229.347186" y="242.199254" style="stroke: #000000; stroke-width: 0.8"/>
      </g>
     </g>
     <g id="text_5">
      <text style="font: 10px 'DejaVu Sans', 'Bitstream Vera Sans', 'Computer Modern Sans Serif', 'Lucida Grande', 'Verdana', 'Geneva', 'Lucid', 'Arial', 'Helvetica', 'Avant Garde', sans-serif; text-anchor: middle" x="229.347186" y="256.797691" transform="rotate(-0 229.347186 256.797691)">200</text>
     </g>
    </g>
    <g id="xtick_6">
     <g id="line2d_6">
      <g>
       <use xlink:href="#me38ad4722d" x="272.253315" y="242.199254" style="stroke: #000000; stroke-width: 0.8"/>
      </g>
     </g>
     <g id="text_6">
      <text style="font: 10px 'DejaVu Sans', 'Bitstream Vera Sans', 'Computer Modern Sans Serif', 'Lucida Grande', 'Verdana', 'Geneva', 'Lucid', 'Arial', 'Helvetica', 'Avant Garde', sans-serif; text-anchor: middle" x="272.253315" y="256.797691" transform="rotate(-0 272.253315 256.797691)">250</text>
     </g>
    </g>
    <g id="xtick_7">
     <g id="line2d_7">
      <g>
       <use xlink:href="#me38ad4722d" x="315.159444" y="242.199254" style="stroke: #000000; stroke-width: 0.8"/>
      </g>
     </g>
     <g id="text_7">
      <text style="font: 10px 'DejaVu Sans', 'Bitstream Vera Sans', 'Computer Modern Sans Serif', 'Lucida Grande', 'Verdana', 'Geneva', 'Lucid', 'Arial', 'Helvetica', 'Avant Garde', sans-serif; text-anchor: middle" x="315.159444" y="256.797691" transform="rotate(-0 315.159444 256.797691)">300</text>
     </g>
    </g>
    <g id="xtick_8">
     <g id="line2d_8">
      <g>
       <use xlink:href="#me38ad4722d" x="358.065573" y="242.199254" style="stroke: #000000; stroke-width: 0.8"/>
      </g>
     </g>
     <g id="text_8">
      <text style="font: 10px 'DejaVu Sans', 'Bitstream Vera Sans', 'Computer Modern Sans Serif', 'Lucida Grande', 'Verdana', 'Geneva', 'Lucid', 'Arial', 'Helvetica', 'Avant Garde', sans-serif; text-anchor: middle" x="358.065573" y="256.797691" transform="rotate(-0 358.065573 256.797691)">350</text>
     </g>
    </g>
    <g id="xtick_9">
     <g id="line2d_9">
      <g>
       <use xlink:href="#me38ad4722d" x="400.971702" y="242.199254" style="stroke: #000000; stroke-width: 0.8"/>
      </g>
     </g>
     <g id="text_9">
      <text style="font: 10px 'DejaVu Sans', 'Bitstream Vera Sans', 'Computer Modern Sans Serif', 'Lucida Grande', 'Verdana', 'Geneva', 'Lucid', 'Arial', 'Helvetica', 'Avant Garde', sans-serif; text-anchor: middle" x="400.971702" y="256.797691" transform="rotate(-0 400.971702 256.797691)">400</text>
     </g>
    </g>
    <g id="text_10">
     <text style="font: 10px 'DejaVu Sans', 'Bitstream Vera Sans', 'Computer Modern Sans Serif', 'Lucida Grande', 'Verdana', 'Geneva', 'Lucid', 'Arial', 'Helvetica', 'Avant Garde', sans-serif; text-anchor: middle" x="228.918125" y="270.475816" transform="rotate(-0 228.918125 270.475816)">testing blocks</text>
    </g>
   </g>
   <g id="matplotlib.axis_2">
    <g id="ytick_1">
     <g id="line2d_10">
      <defs>
       <path id="mb1d5441d26" d="M 0 0 
L -3.5 0 
" style="stroke: #000000; stroke-width: 0.8"/>
      </defs>
      <g>
       <use xlink:href="#mb1d5441d26" x="40.603125" y="214.99925" style="stroke: #000000; stroke-width: 0.8"/>
      </g>
     </g>
     <g id="text_11">
      <text style="font: 10px 'DejaVu Sans', 'Bitstream Vera Sans', 'Computer Modern Sans Serif', 'Lucida Grande', 'Verdana', 'Geneva', 'Lucid', 'Arial', 'Helvetica', 'Avant Garde', sans-serif; text-anchor: end" x="33.603125" y="218.798468" transform="rotate(-0 33.603125 218.798468)">5</text>
     </g>
    </g>
    <g id="ytick_2">
     <g id="line2d_11">
      <g>
       <use xlink:href="#mb1d5441d26" x="40.603125" y="180.999244" style="stroke: #000000; stroke-width: 0.8"/>
      </g>
     </g>
     <g id="text_12">
      <text style="font: 10px 'DejaVu Sans', 'Bitstream Vera Sans', 'Computer Modern Sans Serif', 'Lucida Grande', 'Verdana', 'Geneva', 'Lucid', 'Arial', 'Helvetica', 'Avant Garde', sans-serif; text-anchor: end" x="33.603125" y="184.798463" transform="rotate(-0 33.603125 184.798463)">10</text>
     </g>
    </g>
    <g id="ytick_3">
     <g id="line2d_12">
      <g>
       <use xlink:href="#mb1d5441d26" x="40.603125" y="146.999239" style="stroke: #000000; stroke-width: 0.8"/>
      </g>
     </g>
     <g id="text_13">
      <text style="font: 10px 'DejaVu Sans', 'Bitstream Vera Sans', 'Computer Modern Sans Serif', 'Lucida Grande', 'Verdana', 'Geneva', 'Lucid', 'Arial', 'Helvetica', 'Avant Garde', sans-serif; text-anchor: end" x="33.603125" y="150.798458" transform="rotate(-0 33.603125 150.798458)">15</text>
     </g>
    </g>
    <g id="ytick_4">
     <g id="line2d_13">
      <g>
       <use xlink:href="#mb1d5441d26" x="40.603125" y="112.999234" style="stroke: #000000; stroke-width: 0.8"/>
      </g>
     </g>
     <g id="text_14">
      <text style="font: 10px 'DejaVu Sans', 'Bitstream Vera Sans', 'Computer Modern Sans Serif', 'Lucida Grande', 'Verdana', 'Geneva', 'Lucid', 'Arial', 'Helvetica', 'Avant Garde', sans-serif; text-anchor: end" x="33.603125" y="116.798453" transform="rotate(-0 33.603125 116.798453)">20</text>
     </g>
    </g>
    <g id="ytick_5">
     <g id="line2d_14">
      <g>
       <use xlink:href="#mb1d5441d26" x="40.603125" y="78.999229" style="stroke: #000000; stroke-width: 0.8"/>
      </g>
     </g>
     <g id="text_15">
      <text style="font: 10px 'DejaVu Sans', 'Bitstream Vera Sans', 'Computer Modern Sans Serif', 'Lucida Grande', 'Verdana', 'Geneva', 'Lucid', 'Arial', 'Helvetica', 'Avant Garde', sans-serif; text-anchor: end" x="33.603125" y="82.798448" transform="rotate(-0 33.603125 82.798448)">25</text>
     </g>
    </g>
    <g id="ytick_6">
     <g id="line2d_15">
      <g>
       <use xlink:href="#mb1d5441d26" x="40.603125" y="44.999224" style="stroke: #000000; stroke-width: 0.8"/>
      </g>
     </g>
     <g id="text_16">
      <text style="font: 10px 'DejaVu Sans', 'Bitstream Vera Sans', 'Computer Modern Sans Serif', 'Lucida Grande', 'Verdana', 'Geneva', 'Lucid', 'Arial', 'Helvetica', 'Avant Garde', sans-serif; text-anchor: end" x="33.603125" y="48.798443" transform="rotate(-0 33.603125 48.798443)">30</text>
     </g>
    </g>
    <g id="ytick_7">
     <g id="line2d_16">
      <g>
       <use xlink:href="#mb1d5441d26" x="40.603125" y="10.999219" style="stroke: #000000; stroke-width: 0.8"/>
      </g>
     </g>
     <g id="text_17">
      <text style="font: 10px 'DejaVu Sans', 'Bitstream Vera Sans', 'Computer Modern Sans Serif', 'Lucida Grande', 'Verdana', 'Geneva', 'Lucid', 'Arial', 'Helvetica', 'Avant Garde', sans-serif; text-anchor: end" x="33.603125" y="14.798438" transform="rotate(-0 33.603125 14.798438)">35</text>
     </g>
    </g>
    <g id="text_18">
     <text style="font: 10px 'DejaVu Sans', 'Bitstream Vera Sans', 'Computer Modern Sans Serif', 'Lucida Grande', 'Verdana', 'Geneva', 'Lucid', 'Arial', 'Helvetica', 'Avant Garde', sans-serif; text-anchor: middle" x="14.798438" y="125.761571" transform="rotate(-90 14.798438 125.761571)">distance ratio</text>
    </g>
   </g>
   <g id="line2d_17">
    <path d="M 57.72267 203.137026 
L 58.580793 202.845402 
L 59.438916 162.650035 
L 60.297038 173.443688 
L 61.155161 168.046862 
L 62.013283 198.090156 
L 62.871406 189.756822 
L 63.729529 146.999239 
L 64.587651 190.713532 
L 65.445774 186.665912 
L 66.303896 190.713532 
L 67.162019 196.691554 
L 68.020141 169.518723 
L 68.878264 177.761149 
L 69.736387 178.165911 
L 70.594509 111.380186 
L 71.452632 154.554796 
L 72.310754 176.142101 
L 73.168877 231.132585 
L 74.026999 223.859857 
L 74.885122 205.206086 
L 75.743245 189.756822 
L 76.601367 221.313536 
L 77.45949 223.763695 
L 78.317612 161.423484 
L 79.175735 206.688137 
L 80.033858 196.380199 
L 80.89198 203.463534 
L 81.750103 211.599249 
L 82.608225 222.932584 
L 83.466348 152.665907 
L 85.182593 188.932579 
L 86.040716 180.345398 
L 86.898838 231.756395 
L 87.756961 177.599244 
L 88.615083 183.832578 
L 89.473206 135.665904 
L 90.331328 160.599241 
L 91.189451 211.599249 
L 92.047574 216.107398 
L 92.905696 190.713532 
L 93.763819 185.067621 
L 94.621941 143.761144 
L 95.480064 186.665912 
L 96.338187 193.749246 
L 97.196309 219.445404 
L 98.054432 169.518723 
L 98.912554 225.325177 
L 100.628799 132.427809 
L 101.486922 168.721465 
L 102.345045 169.665909 
L 103.203167 233.814637 
L 104.06129 186.665912 
L 104.919412 151.856383 
L 105.777535 163.999242 
L 106.635657 214.432583 
L 107.49378 224.239251 
L 108.351903 229.651633 
L 109.210025 186.665912 
L 110.068148 203.665915 
L 110.92627 217.265917 
L 111.784393 228.908895 
L 112.642516 180.312376 
L 113.500638 160.999241 
L 114.358761 173.821466 
L 115.216883 176.142101 
L 116.075006 219.445404 
L 116.933128 221.799251 
L 117.791251 133.090146 
L 118.649374 211.599249 
L 119.507496 175.590153 
L 120.365619 188.932579 
L 121.223741 169.518723 
L 122.081864 219.445404 
L 122.939986 230.507823 
L 123.798109 225.611372 
L 124.656232 219.445404 
L 125.514354 200.178734 
L 126.372477 214.690159 
L 127.230599 218.374065 
L 128.088722 192.332579 
L 128.946845 206.332582 
L 129.804967 228.914066 
L 130.66309 216.132583 
L 131.521212 193.804441 
L 132.379335 237.142843 
L 133.237457 222.649251 
L 134.09558 211.599249 
L 134.953703 228.639887 
L 135.811825 235.77703 
L 136.669948 198.090156 
L 137.52807 217.265917 
L 138.386193 219.613536 
L 139.244315 221.313536 
L 140.102438 211.599249 
L 140.960561 228.444706 
L 141.818683 225.654764 
L 142.676806 229.550301 
L 143.534928 180.345398 
L 144.393051 200.665914 
L 145.251174 234.492586 
L 146.109296 225.954807 
L 146.967419 231.132585 
L 147.825541 228.478559 
L 148.683664 182.21353 
L 149.541786 198.559687 
L 150.399909 231.52703 
L 151.258032 214.690159 
L 152.116154 211.599249 
L 152.974277 233.853798 
L 153.832399 186.665912 
L 154.690522 229.125442 
L 155.548644 203.099248 
L 156.406767 207.821471 
L 157.26489 221.799251 
L 158.123012 233.604808 
L 158.981135 214.690159 
L 159.839257 219.188536 
L 160.69738 225.599251 
L 161.555503 172.499243 
L 162.413625 188.845399 
L 163.271748 228.444706 
L 164.12987 221.799251 
L 164.987993 204.475438 
L 165.846115 235.93501 
L 166.704238 217.265917 
L 167.562361 233.097714 
L 168.420483 203.099248 
L 169.278606 182.888134 
L 170.136728 233.86231 
L 170.994851 231.873326 
L 171.852973 233.097714 
L 173.569219 189.756822 
L 174.427341 233.097714 
L 175.285464 236.804101 
L 176.143586 214.65925 
L 177.001709 232.617434 
L 177.859832 226.899251 
L 178.717954 233.853798 
L 179.576077 235.237348 
L 180.434199 228.275442 
L 181.292322 225.010362 
L 182.150444 207.821471 
L 183.008567 223.768013 
L 183.86669 225.567584 
L 184.724812 186.935753 
L 185.582935 239.078675 
L 186.441057 226.899251 
L 187.29918 182.888134 
L 188.157302 176.142101 
L 189.015425 229.694036 
L 189.873548 203.099248 
L 190.73167 234.492586 
L 191.589793 225.588834 
L 192.447915 211.599249 
L 193.306038 211.599249 
L 194.164161 186.665912 
L 195.022283 219.330203 
L 195.880406 201.399248 
L 196.738528 221.151631 
L 197.596651 220.295404 
L 198.454773 228.599252 
L 199.312896 166.178729 
L 200.171019 207.254804 
L 201.029141 217.265917 
L 201.887264 214.690159 
L 202.745386 232.235363 
L 203.603509 189.971468 
L 204.461631 233.067824 
L 205.319754 228.44814 
L 206.177877 197.027818 
L 207.035999 235.965919 
L 207.894122 226.534966 
L 208.752244 222.743695 
L 209.610367 234.549253 
L 210.46849 237.557983 
L 211.326612 205.088137 
L 212.184735 221.59319 
L 213.042857 207.299777 
L 213.90098 180.312376 
L 214.759102 200.178734 
L 216.475348 229.354807 
L 217.33347 226.534966 
L 218.191593 211.599249 
L 219.049715 222.726523 
L 219.907838 225.599251 
L 220.76596 207.821471 
L 221.624083 217.265917 
L 222.482206 228.44814 
L 223.340328 237.655956 
L 224.198451 207.821471 
L 225.056573 231.419993 
L 225.914696 230.049601 
L 226.772819 228.275442 
L 227.630941 182.510356 
L 228.489064 233.844967 
L 229.347186 235.210364 
L 230.205309 189.756822 
L 231.063431 158.332574 
L 231.921554 197.027818 
L 232.779677 195.423489 
L 233.637799 221.313536 
L 234.495922 226.710362 
L 235.354044 171.314394 
L 236.212167 197.027818 
L 237.07029 198.849247 
L 237.928412 174.273969 
L 238.786535 225.599251 
L 239.644657 234.220586 
L 240.50278 239.451396 
L 241.360902 235.330566 
L 242.219025 215.371303 
L 243.077148 211.437344 
L 243.93527 225.599251 
L 244.793393 219.280732 
L 246.509638 184.090154 
L 247.36776 194.512067 
L 248.225883 227.951632 
L 249.084006 237.973426 
L 249.942128 227.030021 
L 250.800251 212.084963 
L 251.658373 184.090154 
L 252.516496 234.129634 
L 253.374619 228.275442 
L 254.232741 233.456395 
L 255.090864 143.221461 
L 255.948986 204.713534 
L 256.807109 235.865179 
L 257.665231 146.999239 
L 258.523354 235.32198 
L 259.381477 184.090154 
L 260.239599 233.274252 
L 261.097722 186.665912 
L 261.955844 233.844967 
L 262.813967 237.543571 
L 263.672089 235.561157 
L 264.530212 225.599251 
L 265.388335 180.312376 
L 266.246457 206.069955 
L 267.10458 225.577029 
L 267.962702 175.757577 
L 268.820825 221.043695 
L 269.678948 219.613536 
L 270.53707 214.690159 
L 271.395193 203.463534 
L 272.253315 221.313536 
L 273.111438 220.406869 
L 273.96956 172.499243 
L 274.827683 222.932584 
L 275.685806 210.803217 
L 277.402051 233.456395 
L 278.260173 226.559251 
L 279.118296 215.565916 
L 279.976418 231.756395 
L 280.834541 203.099248 
L 281.692664 238.696223 
L 282.550786 221.313536 
L 283.408909 230.07819 
L 284.267031 236.977824 
L 285.125154 202.249248 
L 285.983277 233.844967 
L 286.841399 226.893255 
L 287.699522 240.261378 
L 288.557644 237.054279 
L 289.415767 226.29726 
L 290.273889 223.121473 
L 291.132012 180.427816 
L 291.990135 107.332567 
L 292.848257 231.082282 
L 293.70638 236.217771 
L 294.564502 207.703415 
L 295.422625 221.313536 
L 296.280747 239.287987 
L 297.13887 236.658512 
L 297.996993 223.859857 
L 298.855115 214.432583 
L 299.713238 214.690159 
L 300.57136 226.899251 
L 301.429483 197.027818 
L 302.287606 201.530017 
L 303.145728 229.165918 
L 304.003851 230.739993 
L 304.861973 233.510363 
L 306.578218 200.178734 
L 307.436341 236.694491 
L 308.294464 222.932584 
L 309.152586 236.582957 
L 310.010709 203.099248 
L 311.726954 225.577029 
L 312.585076 224.349251 
L 313.443199 236.635616 
L 314.301322 221.556393 
L 315.159444 216.132583 
L 316.017567 226.706211 
L 316.875689 188.932579 
L 317.733812 193.804441 
L 319.450057 227.00314 
L 320.30818 231.857585 
L 321.166302 231.873326 
L 322.024425 233.132586 
L 322.882547 208.765915 
L 323.74067 219.445404 
L 324.598793 234.04698 
L 325.456915 205.392899 
L 326.315038 215.754805 
L 327.17316 220.43925 
L 328.031283 216.132583 
L 328.889405 234.670681 
L 329.747528 226.251632 
L 330.605651 236.227458 
L 331.463773 237.935516 
L 332.321896 229.354807 
L 334.038141 238.02211 
L 334.896264 236.694491 
L 335.754386 226.85068 
L 336.612509 186.935753 
L 337.470631 222.875917 
L 339.186876 238.576634 
L 340.044999 220.741473 
L 341.761244 239.912327 
L 343.477489 227.681595 
L 344.335612 236.835639 
L 345.193734 212.084963 
L 346.051857 217.265917 
L 346.90998 206.499248 
L 347.768102 227.030021 
L 348.626225 230.739993 
L 349.484347 107.332567 
L 350.34247 230.299252 
L 351.200593 212.084963 
L 352.058715 223.859857 
L 352.916838 226.899251 
L 353.77496 228.773611 
L 354.633083 206.688137 
L 355.491205 196.110358 
L 356.349328 225.03361 
L 357.207451 232.565919 
L 358.065573 232.424252 
L 358.923696 150.090149 
L 359.781818 228.94797 
L 360.639941 219.280732 
L 361.498063 198.559687 
L 362.356186 227.424706 
L 363.214309 176.142101 
L 364.072431 236.948019 
L 364.930554 215.958224 
L 365.788676 229.959252 
L 366.646799 231.189728 
L 367.504922 217.265917 
L 368.363044 223.159251 
L 369.221167 233.708792 
L 370.079289 203.96708 
L 370.937412 187.181064 
L 371.795534 230.281222 
L 372.653657 236.885927 
L 373.51178 231.195616 
L 374.369902 228.5951 
L 375.228025 238.194809 
L 376.086147 237.382586 
L 377.802392 220.440703 
L 378.660515 227.90414 
L 379.518638 220.504012 
L 380.37676 227.684504 
L 381.234883 219.445404 
L 382.093005 229.354807 
L 382.951128 226.899251 
L 383.809251 233.899252 
L 384.667373 234.382158 
L 385.525496 226.462108 
L 386.383618 222.932584 
L 387.241741 233.812586 
L 388.099863 224.615413 
L 388.957986 233.844967 
L 389.816109 226.899251 
L 390.674231 237.65948 
L 391.532354 211.599249 
L 392.390476 206.332582 
L 393.248599 231.587131 
L 394.106721 234.964544 
L 394.964844 236.895253 
L 395.822967 219.445404 
L 396.681089 235.559253 
L 397.539212 218.759856 
L 398.397334 234.339512 
L 399.255457 232.279887 
L 400.11358 239.120364 
L 400.11358 239.120364 
" clip-path="url(#p5c522f4a88)" style="fill: none; stroke: #1f77b4; stroke-width: 1.5; stroke-linecap: square"/>
   </g>
   <g id="line2d_18">
    <path d="M 57.72267 230.689622 
L 58.580793 234.692768 
L 59.438916 237.881253 
L 60.297038 230.379881 
L 61.155161 236.59097 
L 62.013283 193.922395 
L 62.871406 234.197421 
L 63.729529 232.006191 
L 64.587651 218.68925 
L 65.445774 157.927812 
L 66.303896 217.113536 
L 67.162019 214.300361 
L 68.020141 219.154806 
L 68.878264 235.613061 
L 69.736387 230.331142 
L 70.594509 229.606901 
L 71.452632 235.534228 
L 72.310754 211.13533 
L 73.168877 228.83173 
L 74.885122 231.942585 
L 75.743245 224.599251 
L 76.601367 210.151101 
L 77.45949 226.656394 
L 78.317612 234.606615 
L 79.175735 232.956177 
L 80.033858 212.990158 
L 80.89198 230.462169 
L 81.750103 240.002944 
L 82.608225 233.812862 
L 83.466348 213.205095 
L 84.32447 211.583059 
L 85.182593 238.575226 
L 86.040716 229.921474 
L 86.898838 239.91634 
L 87.756961 237.567015 
L 88.615083 237.634819 
L 89.473206 211.509302 
L 90.331328 239.53637 
L 91.189451 234.194871 
L 92.047574 230.756425 
L 92.905696 226.13614 
L 93.763819 238.280411 
L 94.621941 219.497167 
L 95.480064 235.394686 
L 96.338187 235.887216 
L 97.196309 241.224917 
L 98.912554 228.916834 
L 99.770677 231.070344 
L 100.628799 227.565085 
L 101.486922 227.324251 
L 102.345045 223.325387 
L 103.203167 234.264787 
L 104.06129 222.660584 
L 104.919412 238.067885 
L 105.777535 237.626475 
L 106.635657 232.895759 
L 107.49378 218.135492 
L 108.351903 195.73258 
L 109.210025 234.142155 
L 110.068148 238.404675 
L 110.92627 231.904808 
L 111.784393 235.416872 
L 112.642516 240.50592 
L 113.500638 241.396013 
L 114.358761 227.239251 
L 115.216883 239.047576 
L 116.075006 224.222426 
L 116.933128 234.248424 
L 117.791251 234.980835 
L 118.649374 219.429144 
L 119.507496 233.017106 
L 120.365619 225.559752 
L 121.223741 231.884762 
L 122.081864 195.894485 
L 122.939986 208.508339 
L 123.798109 234.75703 
L 124.656232 237.165589 
L 125.514354 230.281089 
L 126.372477 219.481668 
L 127.230599 237.077854 
L 128.088722 230.984758 
L 128.946845 236.054967 
L 129.804967 238.151461 
L 130.66309 230.754807 
L 131.521212 231.500253 
L 132.379335 238.410025 
L 133.237457 188.845399 
L 134.09558 236.597348 
L 134.953703 236.08698 
L 135.811825 232.878609 
L 136.669948 230.446701 
L 137.52807 240.641647 
L 138.386193 237.683909 
L 139.244315 233.294763 
L 140.102438 220.033998 
L 140.960561 235.191948 
L 141.818683 240.822433 
L 142.676806 223.749288 
L 143.534928 232.490363 
L 144.393051 236.710681 
L 145.251174 234.942549 
L 146.109296 235.987494 
L 146.967419 236.593419 
L 147.825541 238.826678 
L 148.683664 236.714963 
L 149.541786 240.353502 
L 150.399909 240.223476 
L 151.258032 241.338215 
L 152.116154 240.460091 
L 152.974277 240.085844 
L 153.832399 235.707355 
L 154.690522 233.713419 
L 155.548644 238.66338 
L 156.406767 226.698894 
L 157.26489 218.487398 
L 158.123012 236.285578 
L 158.981135 236.910078 
L 159.839257 234.835663 
L 160.69738 226.559251 
L 161.555503 238.524682 
L 162.413625 232.622586 
L 163.271748 236.98502 
L 164.12987 227.76814 
L 164.987993 235.098748 
L 165.846115 239.249222 
L 166.704238 228.828967 
L 167.562361 231.55705 
L 168.420483 234.811253 
L 169.278606 230.888688 
L 170.136728 238.233924 
L 170.994851 194.703585 
L 171.852973 236.97259 
L 172.711096 234.443002 
L 173.569219 237.3824 
L 174.427341 239.526426 
L 175.285464 232.074808 
L 176.143586 227.776236 
L 177.001709 238.358374 
L 177.859832 225.979863 
L 178.717954 231.020818 
L 179.576077 177.599244 
L 180.434199 240.226628 
L 181.292322 240.906134 
L 182.150444 241.288308 
L 183.008567 241.506453 
L 183.86669 240.0158 
L 184.724812 227.009492 
L 185.582935 232.911 
L 186.441057 235.768158 
L 187.29918 234.763899 
L 188.157302 237.608149 
L 189.015425 223.147822 
L 189.873548 235.572722 
L 190.73167 235.856593 
L 191.589793 221.043695 
L 192.447915 232.98405 
L 193.306038 239.01749 
L 195.022283 228.56438 
L 195.880406 241.362746 
L 196.738528 231.864093 
L 197.596651 239.773428 
L 198.454773 212.275928 
L 199.312896 233.417764 
L 200.171019 231.093935 
L 201.029141 236.100674 
L 201.887264 234.639842 
L 202.745386 230.542109 
L 203.603509 237.279556 
L 204.461631 231.604947 
L 205.319754 229.77195 
L 206.177877 215.252831 
L 207.035999 238.713776 
L 207.894122 229.311633 
L 209.610367 234.132036 
L 210.46849 232.887815 
L 211.326612 234.356991 
L 212.184735 223.951339 
L 213.042857 232.799332 
L 213.90098 237.297742 
L 214.759102 239.641364 
L 215.617225 228.702808 
L 216.475348 237.714491 
L 217.33347 240.769708 
L 218.191593 239.512993 
L 219.049715 231.330046 
L 219.907838 227.719569 
L 220.76596 228.122878 
L 221.624083 238.38283 
L 222.482206 205.649248 
L 223.340328 223.260073 
L 224.198451 231.588494 
L 225.056573 220.021978 
L 225.914696 228.948246 
L 226.772819 235.513935 
L 227.630941 229.670859 
L 228.489064 235.68553 
L 229.347186 195.858506 
L 231.063431 237.289253 
L 231.921554 234.583405 
L 232.779677 228.410363 
L 233.637799 234.705449 
L 234.495922 237.856329 
L 235.354044 232.010414 
L 236.212167 231.266826 
L 237.07029 227.635918 
L 237.928412 232.218498 
L 238.786535 229.188866 
L 239.644657 215.452869 
L 240.50278 240.011144 
L 241.360902 186.935753 
L 242.219025 235.997665 
L 243.077148 234.515881 
L 243.93527 215.915483 
L 244.793393 236.050262 
L 245.651515 231.386712 
L 246.509638 233.502031 
L 247.36776 237.462176 
L 248.225883 233.684515 
L 249.084006 236.875055 
L 249.942128 232.023956 
L 250.800251 240.021566 
L 251.658373 208.199249 
L 252.516496 227.080582 
L 253.374619 231.127457 
L 254.232741 239.129436 
L 255.090864 240.659688 
L 255.948986 233.689767 
L 256.807109 192.676014 
L 257.665231 239.993474 
L 258.523354 239.049959 
L 259.381477 232.077506 
L 260.239599 238.86794 
L 261.097722 227.496275 
L 261.955844 236.551073 
L 262.813967 231.430971 
L 264.530212 236.591684 
L 265.388335 238.086418 
L 266.246457 231.69703 
L 267.10458 233.746475 
L 267.962702 240.80983 
L 268.820825 232.420437 
L 269.678948 225.708352 
L 270.53707 236.137864 
L 271.395193 238.163641 
L 272.253315 241.102471 
L 273.111438 227.971559 
L 273.96956 235.134318 
L 274.827683 230.472705 
L 275.685806 241.22494 
L 276.543928 225.879251 
L 277.402051 234.69381 
L 278.260173 233.889341 
L 279.118296 231.630363 
L 279.976418 235.347775 
L 280.834541 233.486882 
L 281.692664 235.612945 
L 282.550786 233.616618 
L 283.408909 214.545916 
L 284.267031 238.30296 
L 285.125154 223.744705 
L 285.983277 230.987347 
L 286.841399 218.480202 
L 287.699522 217.993568 
L 288.557644 239.166537 
L 289.415767 238.961976 
L 290.273889 235.411588 
L 291.132012 239.314754 
L 291.990135 233.001926 
L 292.848257 233.890953 
L 293.70638 236.225382 
L 294.564502 160.032575 
L 295.422625 236.712151 
L 296.280747 235.634751 
L 297.13887 227.022888 
L 297.996993 227.817251 
L 298.855115 235.339152 
L 299.713238 222.649251 
L 300.57136 228.47195 
L 301.429483 241.1065 
L 302.287606 236.866169 
L 303.145728 239.323057 
L 304.003851 234.366902 
L 305.720096 240.77986 
L 306.578218 233.701051 
L 307.436341 237.885425 
L 308.294464 233.63592 
L 309.152586 231.49255 
L 310.868831 238.461142 
L 311.726954 238.341605 
L 312.585076 224.900884 
L 313.443199 240.180573 
L 314.301322 189.555912 
L 315.159444 237.38157 
L 316.017567 239.719668 
L 316.875689 223.968914 
L 318.591935 241.366897 
L 319.450057 228.890781 
L 320.30818 236.02248 
L 321.166302 239.527633 
L 322.024425 221.47652 
L 322.882547 235.100514 
L 323.74067 239.377789 
L 324.598793 220.892584 
L 325.456915 231.973887 
L 326.315038 238.595004 
L 327.17316 237.887159 
L 328.031283 231.486683 
L 328.889405 231.744252 
L 329.747528 187.67332 
L 330.605651 214.99925 
L 331.463773 236.164621 
L 332.321896 236.113031 
L 333.180018 233.283451 
L 334.038141 240.358095 
L 334.896264 143.923048 
L 335.754386 240.01129 
L 336.612509 230.938935 
L 337.470631 238.521766 
L 338.328754 237.747222 
L 339.186876 235.095231 
L 340.044999 225.123696 
L 340.903122 230.474649 
L 341.761244 239.974219 
L 342.619367 235.587953 
L 343.477489 221.799251 
L 344.335612 234.123353 
L 345.193734 226.037909 
L 346.051857 234.025065 
L 346.90998 238.380999 
L 347.768102 215.577415 
L 348.626225 233.998245 
L 349.484347 233.225103 
L 350.34247 210.103249 
L 351.200593 232.765601 
L 352.058715 229.054522 
L 352.916838 223.291131 
L 353.77496 240.379185 
L 354.633083 227.339992 
L 355.491205 238.642663 
L 356.349328 234.393419 
L 357.207451 239.85526 
L 358.065573 236.732476 
L 358.923696 239.175278 
L 359.781818 237.780541 
L 360.639941 237.666498 
L 361.498063 233.577201 
L 362.356186 224.705827 
L 363.214309 204.833591 
L 364.072431 239.920094 
L 364.930554 210.239249 
L 365.788676 232.400301 
L 366.646799 224.361082 
L 367.504922 231.951417 
L 368.363044 236.132771 
L 369.221167 223.748731 
L 370.079289 236.358007 
L 370.937412 233.432996 
L 371.795534 230.042535 
L 372.653657 232.572395 
L 373.51178 238.599632 
L 374.369902 234.84338 
L 375.228025 235.609137 
L 376.086147 220.892584 
L 376.94427 236.639112 
L 377.802392 236.851188 
L 378.660515 225.809706 
L 379.518638 240.304864 
L 380.37676 239.572138 
L 381.234883 224.217029 
L 382.093005 231.900656 
L 382.951128 227.456024 
L 383.809251 230.168186 
L 384.667373 221.73179 
L 385.525496 233.89823 
L 386.383618 233.629865 
L 387.241741 229.645636 
L 388.099863 168.721465 
L 388.957986 235.098483 
L 389.816109 230.516474 
L 390.674231 220.738774 
L 391.532354 239.858626 
L 392.390476 222.583866 
L 393.248599 232.390522 
L 394.106721 235.726836 
L 394.964844 233.040445 
L 395.822967 220.027822 
L 396.681089 234.751633 
L 397.539212 226.651597 
L 398.397334 232.810852 
L 399.255457 236.728659 
L 400.11358 226.710362 
L 400.11358 226.710362 
" clip-path="url(#p5c522f4a88)" style="fill: none; stroke: #ff7f0e; stroke-width: 1.5; stroke-linecap: square"/>
   </g>
   <g id="patch_3">
    <path d="M 40.603125 242.199254 
L 40.603125 9.323889 
" style="fill: none; stroke: #000000; stroke-width: 0.8; stroke-linejoin: miter; stroke-linecap: square"/>
   </g>
   <g id="patch_4">
    <path d="M 417.233125 242.199254 
L 417.233125 9.323889 
" style="fill: none; stroke: #000000; stroke-width: 0.8; stroke-linejoin: miter; stroke-linecap: square"/>
   </g>
   <g id="patch_5">
    <path d="M 40.603125 242.199254 
L 417.233125 242.199254 
" style="fill: none; stroke: #000000; stroke-width: 0.8; stroke-linejoin: miter; stroke-linecap: square"/>
   </g>
   <g id="patch_6">
    <path d="M 40.603125 9.323889 
L 417.233125 9.323889 
" style="fill: none; stroke: #000000; stroke-width: 0.8; stroke-linejoin: miter; stroke-linecap: square"/>
   </g>
   <g id="legend_1">
    <g id="patch_7">
     <path d="M 281.462813 47.236389 
L 410.233125 47.236389 
Q 412.233125 47.236389 412.233125 45.236389 
L 412.233125 16.323889 
Q 412.233125 14.323889 410.233125 14.323889 
L 281.462813 14.323889 
Q 279.462813 14.323889 279.462813 16.323889 
L 279.462813 45.236389 
Q 279.462813 47.236389 281.462813 47.236389 
z
" style="fill: #ffffff; opacity: 0.8; stroke: #cccccc; stroke-linejoin: miter"/>
    </g>
    <g id="line2d_19">
     <path d="M 283.462813 22.422327 
L 293.462813 22.422327 
L 303.462813 22.422327 
" style="fill: none; stroke: #1f77b4; stroke-width: 1.5; stroke-linecap: square"/>
    </g>
    <g id="text_19">
     <text style="font: 10px 'DejaVu Sans', 'Bitstream Vera Sans', 'Computer Modern Sans Serif', 'Lucida Grande', 'Verdana', 'Geneva', 'Lucid', 'Arial', 'Helvetica', 'Avant Garde', sans-serif; text-anchor: start" x="311.462813" y="25.922327" transform="rotate(-0 311.462813 25.922327)">DQN_rand_walls</text>
    </g>
    <g id="patch_8">
     <path d="M 283.462813 40.878577 
L 303.462813 40.878577 
L 303.462813 33.878577 
L 283.462813 33.878577 
z
" style="fill: #1f77b4; fill-opacity: 0.3"/>
    </g>
    <g id="text_20">
     <text style="font: 10px 'DejaVu Sans', 'Bitstream Vera Sans', 'Computer Modern Sans Serif', 'Lucida Grande', 'Verdana', 'Geneva', 'Lucid', 'Arial', 'Helvetica', 'Avant Garde', sans-serif; text-anchor: start" x="311.462813" y="40.878577" transform="rotate(-0 311.462813 40.878577)">IQLearn_rand_walls</text>
    </g>
   </g>
  </g>
 </g>
 <defs>
  <clipPath id="p5c522f4a88">
   <rect x="40.603125" y="9.323889" width="376.63" height="232.875364"/>
  </clipPath>
 </defs>
</svg>
