<?xml version="1.0" encoding="utf-8" standalone="no"?>
<!DOCTYPE svg PUBLIC "-//W3C//DTD SVG 1.1//EN"
  "http://www.w3.org/Graphics/SVG/1.1/DTD/svg11.dtd">
<svg xmlns:xlink="http://www.w3.org/1999/xlink" width="424.433125pt" height="279.99625pt" viewBox="0 0 424.433125 279.99625" xmlns="http://www.w3.org/2000/svg" version="1.1">
 <metadata>
  <rdf:RDF xmlns:dc="http://purl.org/dc/elements/1.1/" xmlns:cc="http://creativecommons.org/ns#" xmlns:rdf="http://www.w3.org/1999/02/22-rdf-syntax-ns#">
   <cc:Work>
    <dc:type rdf:resource="http://purl.org/dc/dcmitype/StillImage"/>
    <dc:date>2023-11-10T21:51:32.981029</dc:date>
    <dc:format>image/svg+xml</dc:format>
    <dc:creator>
     <cc:Agent>
      <dc:title>Matplotlib v3.7.1, https://matplotlib.org/</dc:title>
     </cc:Agent>
    </dc:creator>
   </cc:Work>
  </rdf:RDF>
 </metadata>
 <defs>
  <style type="text/css">*{stroke-linejoin: round; stroke-linecap: butt}</style>
 </defs>
 <g id="figure_1">
  <g id="patch_1">
   <path d="M 0 279.99625 
L 424.433125 279.99625 
L 424.433125 0 
L 0 0 
z
" style="fill: #ffffff"/>
  </g>
  <g id="axes_1">
   <g id="patch_2">
    <path d="M 40.603125 242.44 
L 417.233125 242.44 
L 417.233125 7.2 
L 40.603125 7.2 
z
" style="fill: #ffffff"/>
   </g>
   <g id="PolyCollection_1">
    <path d="M 57.72267 180.257484 
L 57.72267 118.993921 
L 61.181164 185.362781 
L 64.639659 189.787371 
L 68.098153 158.815237 
L 71.556647 157.908166 
L 75.015141 19.440632 
L 78.473635 185.362781 
L 81.932129 241.94207 
L 85.390623 224.892575 
L 88.849117 202.475982 
L 92.307611 216.130168 
L 95.766105 236.858935 
L 99.224599 216.040139 
L 102.683093 241.506382 
L 106.141587 237.469875 
L 109.600081 238.801993 
L 113.058575 242.44 
L 116.517069 242.44 
L 119.975563 242.44 
L 123.434057 242.44 
L 126.892551 236.069839 
L 130.351045 242.44 
L 133.809539 204.193712 
L 137.268033 242.44 
L 140.726527 238.192393 
L 144.185021 242.128794 
L 147.643515 239.875881 
L 151.102009 242.44 
L 154.560503 241.382092 
L 158.018997 239.70598 
L 161.477491 242.44 
L 164.935985 208.953127 
L 168.394479 208.193668 
L 171.852973 242.44 
L 175.311468 242.44 
L 178.769962 241.959171 
L 182.228456 224.293973 
L 185.68695 242.44 
L 189.145444 242.44 
L 192.603938 240.628731 
L 196.062432 242.44 
L 199.520926 242.44 
L 202.97942 242.159517 
L 206.437914 242.44 
L 209.896408 242.44 
L 213.354902 242.44 
L 216.813396 242.44 
L 220.27189 242.44 
L 223.730384 242.081918 
L 227.188878 241.585391 
L 230.647372 241.700513 
L 234.105866 225.413888 
L 237.56436 242.44 
L 241.022854 242.44 
L 244.481348 242.034323 
L 247.939842 215.184522 
L 251.398336 241.988448 
L 254.85683 227.666183 
L 258.315324 241.525856 
L 261.773818 242.036467 
L 265.232312 242.44 
L 268.690806 242.44 
L 272.1493 242.44 
L 275.607794 239.950352 
L 279.066288 242.44 
L 282.524782 242.44 
L 285.983277 242.44 
L 289.441771 242.44 
L 292.900265 241.939473 
L 296.358759 241.510836 
L 299.817253 242.44 
L 303.275747 242.44 
L 306.734241 242.44 
L 310.192735 242.44 
L 313.651229 242.44 
L 317.109723 242.44 
L 320.568217 242.44 
L 324.026711 213.99355 
L 327.485205 212.12896 
L 330.943699 241.921172 
L 334.402193 242.44 
L 337.860687 242.170978 
L 341.319181 242.44 
L 344.777675 242.44 
L 348.236169 242.113591 
L 351.694663 242.267395 
L 355.153157 241.978302 
L 358.611651 192.265142 
L 362.070145 242.44 
L 365.528639 242.44 
L 368.987133 242.068625 
L 372.445627 242.44 
L 375.904121 241.012926 
L 379.362615 242.44 
L 382.821109 232.362384 
L 386.279603 242.44 
L 389.738097 219.041687 
L 393.196591 242.44 
L 396.655086 242.44 
L 400.11358 242.44 
L 400.11358 242.44 
L 400.11358 242.44 
L 396.655086 242.44 
L 393.196591 242.44 
L 389.738097 255.355436 
L 386.279603 242.44 
L 382.821109 247.113295 
L 379.362615 242.44 
L 375.904121 243.22752 
L 372.445627 242.44 
L 368.987133 242.639308 
L 365.528639 242.44 
L 362.070145 242.44 
L 358.611651 259.164953 
L 355.153157 242.676957 
L 351.694663 242.553043 
L 348.236169 242.617743 
L 344.777675 242.44 
L 341.319181 242.44 
L 337.860687 242.610698 
L 334.402193 242.44 
L 330.943699 242.769202 
L 327.485205 257.059596 
L 324.026711 257.217756 
L 320.568217 242.44 
L 317.109723 242.44 
L 313.651229 242.44 
L 310.192735 242.44 
L 306.734241 242.44 
L 303.275747 242.44 
L 299.817253 242.44 
L 296.358759 242.904582 
L 292.900265 242.694716 
L 289.441771 242.44 
L 285.983277 242.44 
L 282.524782 242.44 
L 279.066288 242.44 
L 275.607794 244.000484 
L 272.1493 242.44 
L 268.690806 242.44 
L 265.232312 242.44 
L 261.773818 242.696046 
L 258.315324 242.939207 
L 254.85683 250.798161 
L 251.398336 242.670323 
L 247.939842 256.067739 
L 244.481348 242.703095 
L 241.022854 242.44 
L 237.56436 242.44 
L 234.105866 250.73492 
L 230.647372 242.640042 
L 227.188878 242.968587 
L 223.730384 242.636488 
L 220.27189 242.44 
L 216.813396 242.44 
L 213.354902 242.44 
L 209.896408 242.44 
L 206.437914 242.44 
L 202.97942 242.623695 
L 199.520926 242.44 
L 196.062432 242.44 
L 192.603938 243.087765 
L 189.145444 242.44 
L 185.68695 242.44 
L 182.228456 251.513014 
L 178.769962 242.733119 
L 175.311468 242.44 
L 171.852973 242.44 
L 168.394479 253.855444 
L 164.935985 259.092607 
L 161.477491 242.44 
L 158.018997 243.862006 
L 154.560503 242.904235 
L 151.102009 242.44 
L 147.643515 243.90002 
L 144.185021 242.635061 
L 140.726527 244.563804 
L 137.268033 242.44 
L 133.809539 259.35775 
L 130.351045 242.44 
L 126.892551 245.611149 
L 123.434057 242.44 
L 119.975563 242.44 
L 116.517069 242.44 
L 113.058575 242.44 
L 109.600081 244.511882 
L 106.141587 244.943051 
L 102.683093 243.025182 
L 99.224599 244.622735 
L 95.766105 244.587129 
L 92.307611 252.489462 
L 88.849117 261.526505 
L 85.390623 252.465621 
L 81.932129 242.752097 
L 78.473635 193.658888 
L 75.015141 118.993921 
L 71.556647 264.253262 
L 68.098153 180.257484 
L 64.639659 197.074932 
L 61.181164 185.362781 
L 57.72267 180.257484 
z
" clip-path="url(#p98ed8db28e)" style="fill: #1f77b4; fill-opacity: 0.3"/>
   </g>
   <g id="PolyCollection_2">
    <path d="M 57.72267 266.509422 
L 57.72267 83.177211 
L 61.181164 136.889884 
L 64.639659 228.095883 
L 68.098153 206.150876 
L 71.556647 234.028154 
L 75.015141 202.384671 
L 78.473635 222.036228 
L 81.932129 225.002421 
L 85.390623 212.230992 
L 88.849117 230.347276 
L 92.307611 233.451975 
L 95.766105 215.644269 
L 99.224599 233.258931 
L 102.683093 229.266622 
L 106.141587 230.211053 
L 109.600081 226.490482 
L 113.058575 232.373029 
L 116.517069 228.676772 
L 119.975563 229.379325 
L 123.434057 234.969474 
L 126.892551 229.570707 
L 130.351045 226.866512 
L 133.809539 232.816429 
L 137.268033 233.530854 
L 140.726527 217.709392 
L 144.185021 217.035786 
L 147.643515 234.556103 
L 151.102009 223.854708 
L 154.560503 196.778413 
L 158.018997 227.632775 
L 161.477491 210.340094 
L 164.935985 224.584169 
L 168.394479 229.15762 
L 171.852973 229.228091 
L 175.311468 231.072286 
L 178.769962 228.785725 
L 182.228456 227.411164 
L 185.68695 219.817676 
L 189.145444 223.704711 
L 192.603938 230.734777 
L 196.062432 225.728235 
L 199.520926 232.385956 
L 202.97942 202.940496 
L 206.437914 215.958638 
L 209.896408 221.528791 
L 213.354902 224.791624 
L 216.813396 227.492894 
L 220.27189 226.210743 
L 223.730384 228.932332 
L 227.188878 232.472133 
L 230.647372 225.766643 
L 234.105866 228.689675 
L 237.56436 228.215467 
L 241.022854 227.33172 
L 244.481348 227.066348 
L 247.939842 219.706884 
L 251.398336 225.73276 
L 254.85683 228.56425 
L 258.315324 216.243325 
L 261.773818 223.195021 
L 265.232312 232.29619 
L 268.690806 230.074078 
L 272.1493 227.691229 
L 275.607794 221.630293 
L 279.066288 215.809788 
L 282.524782 229.65034 
L 285.983277 231.658785 
L 289.441771 222.481295 
L 292.900265 217.31339 
L 296.358759 220.175976 
L 299.817253 230.003646 
L 303.275747 234.054907 
L 306.734241 223.251214 
L 310.192735 221.438494 
L 313.651229 226.266555 
L 317.109723 223.930213 
L 320.568217 230.205692 
L 324.026711 233.715967 
L 327.485205 225.030228 
L 330.943699 227.325779 
L 334.402193 229.068609 
L 337.860687 221.654484 
L 341.319181 228.743017 
L 344.777675 234.634879 
L 348.236169 222.793144 
L 351.694663 232.773901 
L 355.153157 233.136314 
L 358.611651 228.492199 
L 362.070145 227.98198 
L 365.528639 225.595637 
L 368.987133 217.594109 
L 372.445627 153.363017 
L 375.904121 222.647903 
L 379.362615 229.79151 
L 382.821109 229.862238 
L 386.279603 234.104642 
L 389.738097 232.541037 
L 393.196591 231.470995 
L 396.655086 231.50819 
L 400.11358 233.99338 
L 400.11358 242.599727 
L 400.11358 242.599727 
L 396.655086 243.193575 
L 393.196591 244.226165 
L 389.738097 242.075452 
L 386.279603 242.659381 
L 382.821109 243.638136 
L 379.362615 239.58583 
L 375.904121 243.897239 
L 372.445627 274.553521 
L 368.987133 247.383488 
L 365.528639 240.856613 
L 362.070145 242.815549 
L 358.611651 243.200621 
L 355.153157 240.61517 
L 351.694663 240.908196 
L 348.236169 240.942418 
L 344.777675 241.132615 
L 341.319181 242.62863 
L 337.860687 244.00825 
L 334.402193 243.909008 
L 330.943699 245.110155 
L 327.485205 241.772738 
L 324.026711 240.451691 
L 320.568217 243.152674 
L 317.109723 242.171925 
L 313.651229 243.605149 
L 310.192735 243.59756 
L 306.734241 241.485765 
L 303.275747 242.498636 
L 299.817253 241.216565 
L 296.358759 243.42348 
L 292.900265 240.87256 
L 289.441771 240.438947 
L 285.983277 240.256239 
L 282.524782 243.453942 
L 279.066288 242.582763 
L 275.607794 247.529539 
L 272.1493 242.702304 
L 268.690806 241.896661 
L 265.232312 241.955268 
L 261.773818 236.326972 
L 258.315324 249.198397 
L 254.85683 242.039741 
L 251.398336 241.413346 
L 247.939842 247.558636 
L 244.481348 240.891321 
L 241.022854 240.790427 
L 237.56436 242.614723 
L 234.105866 243.166369 
L 230.647372 237.327041 
L 227.188878 241.747291 
L 223.730384 243.74606 
L 220.27189 241.706522 
L 216.813396 243.636324 
L 213.354902 240.7339 
L 209.896408 242.040484 
L 206.437914 240.661338 
L 202.97942 248.661667 
L 199.520926 240.739366 
L 196.062432 242.42836 
L 192.603938 241.957115 
L 189.145444 239.442091 
L 185.68695 248.576413 
L 182.228456 243.957946 
L 178.769962 244.379932 
L 175.311468 243.324307 
L 171.852973 242.437568 
L 168.394479 240.750301 
L 164.935985 244.730489 
L 161.477491 242.105124 
L 158.018997 244.395262 
L 154.560503 260.61468 
L 151.102009 243.998168 
L 147.643515 242.479286 
L 144.185021 247.622159 
L 140.726527 245.329387 
L 137.268033 241.585712 
L 133.809539 242.060084 
L 130.351045 240.60088 
L 126.892551 242.684526 
L 123.434057 240.295373 
L 119.975563 243.745442 
L 116.517069 240.758656 
L 113.058575 238.249721 
L 109.600081 242.16999 
L 106.141587 243.316468 
L 102.683093 245.661104 
L 99.224599 242.379919 
L 95.766105 248.509261 
L 92.307611 242.117301 
L 88.849117 241.899693 
L 85.390623 251.452453 
L 81.932129 241.633737 
L 78.473635 239.867505 
L 75.015141 250.414479 
L 71.556647 243.780758 
L 68.098153 249.47799 
L 64.639659 242.293583 
L 61.181164 281.237575 
L 57.72267 266.509422 
z
" clip-path="url(#p98ed8db28e)" style="fill: #ff7f0e; fill-opacity: 0.3"/>
   </g>
   <g id="matplotlib.axis_1">
    <g id="xtick_1">
     <g id="line2d_1">
      <defs>
       <path id="m6fa4176a7d" d="M 0 0 
L 0 3.5 
" style="stroke: #000000; stroke-width: 0.8"/>
      </defs>
      <g>
       <use xlink:href="#m6fa4176a7d" x="57.72267" y="242.44" style="stroke: #000000; stroke-width: 0.8"/>
      </g>
     </g>
     <g id="text_1">
      <text style="font: 10px 'DejaVu Sans', 'Bitstream Vera Sans', 'Computer Modern Sans Serif', 'Lucida Grande', 'Verdana', 'Geneva', 'Lucid', 'Arial', 'Helvetica', 'Avant Garde', sans-serif; text-anchor: middle" x="57.72267" y="257.038437" transform="rotate(-0 57.72267 257.038437)">0</text>
     </g>
    </g>
    <g id="xtick_2">
     <g id="line2d_2">
      <g>
       <use xlink:href="#m6fa4176a7d" x="126.892551" y="242.44" style="stroke: #000000; stroke-width: 0.8"/>
      </g>
     </g>
     <g id="text_2">
      <text style="font: 10px 'DejaVu Sans', 'Bitstream Vera Sans', 'Computer Modern Sans Serif', 'Lucida Grande', 'Verdana', 'Geneva', 'Lucid', 'Arial', 'Helvetica', 'Avant Garde', sans-serif; text-anchor: middle" x="126.892551" y="257.038437" transform="rotate(-0 126.892551 257.038437)">20</text>
     </g>
    </g>
    <g id="xtick_3">
     <g id="line2d_3">
      <g>
       <use xlink:href="#m6fa4176a7d" x="196.062432" y="242.44" style="stroke: #000000; stroke-width: 0.8"/>
      </g>
     </g>
     <g id="text_3">
      <text style="font: 10px 'DejaVu Sans', 'Bitstream Vera Sans', 'Computer Modern Sans Serif', 'Lucida Grande', 'Verdana', 'Geneva', 'Lucid', 'Arial', 'Helvetica', 'Avant Garde', sans-serif; text-anchor: middle" x="196.062432" y="257.038437" transform="rotate(-0 196.062432 257.038437)">40</text>
     </g>
    </g>
    <g id="xtick_4">
     <g id="line2d_4">
      <g>
       <use xlink:href="#m6fa4176a7d" x="265.232312" y="242.44" style="stroke: #000000; stroke-width: 0.8"/>
      </g>
     </g>
     <g id="text_4">
      <text style="font: 10px 'DejaVu Sans', 'Bitstream Vera Sans', 'Computer Modern Sans Serif', 'Lucida Grande', 'Verdana', 'Geneva', 'Lucid', 'Arial', 'Helvetica', 'Avant Garde', sans-serif; text-anchor: middle" x="265.232312" y="257.038437" transform="rotate(-0 265.232312 257.038437)">60</text>
     </g>
    </g>
    <g id="xtick_5">
     <g id="line2d_5">
      <g>
       <use xlink:href="#m6fa4176a7d" x="334.402193" y="242.44" style="stroke: #000000; stroke-width: 0.8"/>
      </g>
     </g>
     <g id="text_5">
      <text style="font: 10px 'DejaVu Sans', 'Bitstream Vera Sans', 'Computer Modern Sans Serif', 'Lucida Grande', 'Verdana', 'Geneva', 'Lucid', 'Arial', 'Helvetica', 'Avant Garde', sans-serif; text-anchor: middle" x="334.402193" y="257.038437" transform="rotate(-0 334.402193 257.038437)">80</text>
     </g>
    </g>
    <g id="xtick_6">
     <g id="line2d_6">
      <g>
       <use xlink:href="#m6fa4176a7d" x="403.572074" y="242.44" style="stroke: #000000; stroke-width: 0.8"/>
      </g>
     </g>
     <g id="text_6">
      <text style="font: 10px 'DejaVu Sans', 'Bitstream Vera Sans', 'Computer Modern Sans Serif', 'Lucida Grande', 'Verdana', 'Geneva', 'Lucid', 'Arial', 'Helvetica', 'Avant Garde', sans-serif; text-anchor: middle" x="403.572074" y="257.038437" transform="rotate(-0 403.572074 257.038437)">100</text>
     </g>
    </g>
    <g id="text_7">
     <text style="font: 10px 'DejaVu Sans', 'Bitstream Vera Sans', 'Computer Modern Sans Serif', 'Lucida Grande', 'Verdana', 'Geneva', 'Lucid', 'Arial', 'Helvetica', 'Avant Garde', sans-serif; text-anchor: middle" x="228.918125" y="270.716562" transform="rotate(-0 228.918125 270.716562)">testing blocks</text>
    </g>
   </g>
   <g id="matplotlib.axis_2">
    <g id="ytick_1">
     <g id="line2d_7">
      <defs>
       <path id="mec7974e7dd" d="M 0 0 
L -3.5 0 
" style="stroke: #000000; stroke-width: 0.8"/>
      </defs>
      <g>
       <use xlink:href="#mec7974e7dd" x="40.603125" y="205.273439" style="stroke: #000000; stroke-width: 0.8"/>
      </g>
     </g>
     <g id="text_8">
      <text style="font: 10px 'DejaVu Sans', 'Bitstream Vera Sans', 'Computer Modern Sans Serif', 'Lucida Grande', 'Verdana', 'Geneva', 'Lucid', 'Arial', 'Helvetica', 'Avant Garde', sans-serif; text-anchor: end" x="33.603125" y="209.072657" transform="rotate(-0 33.603125 209.072657)">5</text>
     </g>
    </g>
    <g id="ytick_2">
     <g id="line2d_8">
      <g>
       <use xlink:href="#mec7974e7dd" x="40.603125" y="158.815237" style="stroke: #000000; stroke-width: 0.8"/>
      </g>
     </g>
     <g id="text_9">
      <text style="font: 10px 'DejaVu Sans', 'Bitstream Vera Sans', 'Computer Modern Sans Serif', 'Lucida Grande', 'Verdana', 'Geneva', 'Lucid', 'Arial', 'Helvetica', 'Avant Garde', sans-serif; text-anchor: end" x="33.603125" y="162.614456" transform="rotate(-0 33.603125 162.614456)">10</text>
     </g>
    </g>
    <g id="ytick_3">
     <g id="line2d_9">
      <g>
       <use xlink:href="#mec7974e7dd" x="40.603125" y="112.357035" style="stroke: #000000; stroke-width: 0.8"/>
      </g>
     </g>
     <g id="text_10">
      <text style="font: 10px 'DejaVu Sans', 'Bitstream Vera Sans', 'Computer Modern Sans Serif', 'Lucida Grande', 'Verdana', 'Geneva', 'Lucid', 'Arial', 'Helvetica', 'Avant Garde', sans-serif; text-anchor: end" x="33.603125" y="116.156254" transform="rotate(-0 33.603125 116.156254)">15</text>
     </g>
    </g>
    <g id="ytick_4">
     <g id="line2d_10">
      <g>
       <use xlink:href="#mec7974e7dd" x="40.603125" y="65.898833" style="stroke: #000000; stroke-width: 0.8"/>
      </g>
     </g>
     <g id="text_11">
      <text style="font: 10px 'DejaVu Sans', 'Bitstream Vera Sans', 'Computer Modern Sans Serif', 'Lucida Grande', 'Verdana', 'Geneva', 'Lucid', 'Arial', 'Helvetica', 'Avant Garde', sans-serif; text-anchor: end" x="33.603125" y="69.698052" transform="rotate(-0 33.603125 69.698052)">20</text>
     </g>
    </g>
    <g id="ytick_5">
     <g id="line2d_11">
      <g>
       <use xlink:href="#mec7974e7dd" x="40.603125" y="19.440632" style="stroke: #000000; stroke-width: 0.8"/>
      </g>
     </g>
     <g id="text_12">
      <text style="font: 10px 'DejaVu Sans', 'Bitstream Vera Sans', 'Computer Modern Sans Serif', 'Lucida Grande', 'Verdana', 'Geneva', 'Lucid', 'Arial', 'Helvetica', 'Avant Garde', sans-serif; text-anchor: end" x="33.603125" y="23.23985" transform="rotate(-0 33.603125 23.23985)">25</text>
     </g>
    </g>
    <g id="text_13">
     <text style="font: 10px 'DejaVu Sans', 'Bitstream Vera Sans', 'Computer Modern Sans Serif', 'Lucida Grande', 'Verdana', 'Geneva', 'Lucid', 'Arial', 'Helvetica', 'Avant Garde', sans-serif; text-anchor: middle" x="14.798438" y="124.82" transform="rotate(-90 14.798438 124.82)">distance ratio</text>
    </g>
   </g>
   <g id="line2d_12">
    <path d="M 57.72267 149.625702 
L 61.181164 185.362781 
L 64.639659 193.431152 
L 68.098153 169.53636 
L 71.556647 211.080714 
L 75.015141 69.217276 
L 78.473635 189.510834 
L 81.932129 242.347084 
L 85.390623 238.679098 
L 88.849117 232.001244 
L 92.307611 234.309815 
L 95.766105 240.723032 
L 99.224599 230.331437 
L 102.683093 242.265782 
L 106.141587 241.206463 
L 109.600081 241.656938 
L 113.058575 242.44 
L 116.517069 242.44 
L 119.975563 242.44 
L 123.434057 242.44 
L 126.892551 240.840494 
L 130.351045 242.44 
L 133.809539 231.775731 
L 137.268033 242.44 
L 140.726527 241.378098 
L 144.185021 242.381927 
L 147.643515 241.88795 
L 151.102009 242.44 
L 154.560503 242.143163 
L 158.018997 241.783993 
L 161.477491 242.44 
L 164.935985 234.022867 
L 168.394479 231.024556 
L 171.852973 242.44 
L 175.311468 242.44 
L 178.769962 242.346145 
L 182.228456 237.903493 
L 185.68695 242.44 
L 189.145444 242.44 
L 192.603938 241.858248 
L 196.062432 242.44 
L 199.520926 242.44 
L 202.97942 242.391606 
L 206.437914 242.44 
L 209.896408 242.44 
L 213.354902 242.44 
L 216.813396 242.44 
L 220.27189 242.44 
L 223.730384 242.359203 
L 227.188878 242.276989 
L 230.647372 242.170277 
L 234.105866 238.074404 
L 237.56436 242.44 
L 241.022854 242.44 
L 244.481348 242.368709 
L 247.939842 235.62613 
L 251.398336 242.329385 
L 254.85683 239.232172 
L 258.315324 242.232531 
L 261.773818 242.366257 
L 265.232312 242.44 
L 268.690806 242.44 
L 272.1493 242.44 
L 275.607794 241.975418 
L 279.066288 242.44 
L 282.524782 242.44 
L 285.983277 242.44 
L 289.441771 242.44 
L 292.900265 242.317095 
L 296.358759 242.207709 
L 299.817253 242.44 
L 303.275747 242.44 
L 306.734241 242.44 
L 310.192735 242.44 
L 313.651229 242.44 
L 317.109723 242.44 
L 320.568217 242.44 
L 324.026711 235.605653 
L 327.485205 234.594278 
L 330.943699 242.345187 
L 334.402193 242.44 
L 337.860687 242.390838 
L 341.319181 242.44 
L 344.777675 242.44 
L 348.236169 242.365667 
L 351.694663 242.410219 
L 355.153157 242.327629 
L 358.611651 225.715047 
L 362.070145 242.44 
L 365.528639 242.44 
L 368.987133 242.353966 
L 372.445627 242.44 
L 375.904121 242.120223 
L 379.362615 242.44 
L 382.821109 239.737839 
L 386.279603 242.44 
L 389.738097 237.198562 
L 393.196591 242.44 
L 396.655086 242.44 
L 400.11358 242.44 
" clip-path="url(#p98ed8db28e)" style="fill: none; stroke: #1f77b4; stroke-width: 1.5; stroke-linecap: square"/>
   </g>
   <g id="line2d_13">
    <path d="M 57.72267 174.843316 
L 61.181164 209.063729 
L 64.639659 235.194733 
L 68.098153 227.814433 
L 71.556647 238.904456 
L 75.015141 226.399575 
L 78.473635 230.951866 
L 81.932129 233.318079 
L 85.390623 231.841723 
L 88.849117 236.123484 
L 92.307611 237.784638 
L 95.766105 232.076765 
L 99.224599 237.819425 
L 102.683093 237.463863 
L 106.141587 236.763761 
L 109.600081 234.330236 
L 113.058575 235.311375 
L 116.517069 234.717714 
L 119.975563 236.562383 
L 123.434057 237.632424 
L 126.892551 236.127616 
L 130.351045 233.733696 
L 133.809539 237.438257 
L 137.268033 237.558283 
L 140.726527 231.51939 
L 144.185021 232.328972 
L 147.643515 238.517695 
L 151.102009 233.926438 
L 154.560503 228.696546 
L 158.018997 236.014019 
L 161.477491 226.222609 
L 164.935985 234.657329 
L 168.394479 234.95396 
L 171.852973 235.832829 
L 175.311468 237.198297 
L 178.769962 236.582828 
L 182.228456 235.684555 
L 185.68695 234.197044 
L 189.145444 231.573401 
L 192.603938 236.345946 
L 196.062432 234.078297 
L 199.520926 236.562661 
L 202.97942 225.801081 
L 206.437914 228.309988 
L 209.896408 231.784638 
L 213.354902 232.762762 
L 216.813396 235.564609 
L 220.27189 233.958632 
L 223.730384 236.339196 
L 227.188878 237.109712 
L 230.647372 231.546842 
L 234.105866 235.928022 
L 237.56436 235.415095 
L 241.022854 234.061073 
L 244.481348 233.978834 
L 247.939842 233.63276 
L 251.398336 233.573053 
L 254.85683 235.301996 
L 258.315324 232.720861 
L 261.773818 229.760997 
L 265.232312 237.125729 
L 268.690806 235.98537 
L 272.1493 235.196766 
L 275.607794 234.579916 
L 279.066288 229.196275 
L 282.524782 236.552141 
L 285.983277 235.957512 
L 289.441771 231.460121 
L 292.900265 229.092975 
L 296.358759 231.799728 
L 299.817253 235.610105 
L 303.275747 238.276771 
L 306.734241 232.368489 
L 310.192735 232.518027 
L 313.651229 234.935852 
L 317.109723 233.051069 
L 320.568217 236.679183 
L 324.026711 237.083829 
L 327.485205 233.401483 
L 330.943699 236.217967 
L 334.402193 236.488809 
L 337.860687 232.831367 
L 341.319181 235.685823 
L 344.777675 237.883747 
L 348.236169 231.867781 
L 351.694663 236.841048 
L 355.153157 236.875742 
L 358.611651 235.84641 
L 362.070145 235.398765 
L 365.528639 233.226125 
L 368.987133 232.488799 
L 372.445627 213.958269 
L 375.904121 233.272571 
L 379.362615 234.68867 
L 382.821109 236.750187 
L 386.279603 238.382012 
L 389.738097 237.308244 
L 393.196591 237.84858 
L 396.655086 237.350883 
L 400.11358 238.296554 
" clip-path="url(#p98ed8db28e)" style="fill: none; stroke: #ff7f0e; stroke-width: 1.5; stroke-linecap: square"/>
   </g>
   <g id="patch_3">
    <path d="M 40.603125 242.44 
L 40.603125 7.2 
" style="fill: none; stroke: #000000; stroke-width: 0.8; stroke-linejoin: miter; stroke-linecap: square"/>
   </g>
   <g id="patch_4">
    <path d="M 417.233125 242.44 
L 417.233125 7.2 
" style="fill: none; stroke: #000000; stroke-width: 0.8; stroke-linejoin: miter; stroke-linecap: square"/>
   </g>
   <g id="patch_5">
    <path d="M 40.603125 242.44 
L 417.233125 242.44 
" style="fill: none; stroke: #000000; stroke-width: 0.8; stroke-linejoin: miter; stroke-linecap: square"/>
   </g>
   <g id="patch_6">
    <path d="M 40.603125 7.2 
L 417.233125 7.2 
" style="fill: none; stroke: #000000; stroke-width: 0.8; stroke-linejoin: miter; stroke-linecap: square"/>
   </g>
   <g id="legend_1">
    <g id="patch_7">
     <path d="M 276.933125 45.1125 
L 410.233125 45.1125 
Q 412.233125 45.1125 412.233125 43.1125 
L 412.233125 14.2 
Q 412.233125 12.2 410.233125 12.2 
L 276.933125 12.2 
Q 274.933125 12.2 274.933125 14.2 
L 274.933125 43.1125 
Q 274.933125 45.1125 276.933125 45.1125 
z
" style="fill: #ffffff; opacity: 0.8; stroke: #cccccc; stroke-linejoin: miter"/>
    </g>
    <g id="line2d_14">
     <path d="M 278.933125 20.298437 
L 288.933125 20.298437 
L 298.933125 20.298437 
" style="fill: none; stroke: #1f77b4; stroke-width: 1.5; stroke-linecap: square"/>
    </g>
    <g id="text_14">
     <text style="font: 10px 'DejaVu Sans', 'Bitstream Vera Sans', 'Computer Modern Sans Serif', 'Lucida Grande', 'Verdana', 'Geneva', 'Lucid', 'Arial', 'Helvetica', 'Avant Garde', sans-serif; text-anchor: start" x="306.933125" y="23.798437" transform="rotate(-0 306.933125 23.798437)">DQN_static_walls</text>
    </g>
    <g id="patch_8">
     <path d="M 278.933125 38.754687 
L 298.933125 38.754687 
L 298.933125 31.754687 
L 278.933125 31.754687 
z
" style="fill: #1f77b4; fill-opacity: 0.3"/>
    </g>
    <g id="text_15">
     <text style="font: 10px 'DejaVu Sans', 'Bitstream Vera Sans', 'Computer Modern Sans Serif', 'Lucida Grande', 'Verdana', 'Geneva', 'Lucid', 'Arial', 'Helvetica', 'Avant Garde', sans-serif; text-anchor: start" x="306.933125" y="38.754687" transform="rotate(-0 306.933125 38.754687)">IQLearn_static_walls</text>
    </g>
   </g>
  </g>
 </g>
 <defs>
  <clipPath id="p98ed8db28e">
   <rect x="40.603125" y="7.2" width="376.63" height="235.24"/>
  </clipPath>
 </defs>
</svg>
